<svg id="b42def83-c65e-4ae4-b50a-80ac8986b586" data-name="a65e7253-8008-4168-8b28-a712b7943fb3" xmlns="http://www.w3.org/2000/svg" width="100.1288" height="12.0586" viewBox="0 0 100.1288 12.0586">
  <defs>
    <style>
      .b108782d-0a8c-49f1-919e-5f7d39f02a4e {
        fill: #282642;
        opacity: 0.3;
        isolation: isolate;
      }
    </style>
  </defs>
  <path class="b108782d-0a8c-49f1-919e-5f7d39f02a4e" d="M11.2111,11.8045H9.9153c.0209-1.7129-.075-7.8805.1128-9.5211H9.9716c.1852.1372-3.8877,9.003-4.0562,9.4648h-.62c-.222-.5935-4.207-9.07-4.0554-9.4082H1.1831c.1221,1.2067.0284,8.0362.0564,9.4646H0V.875H1.69c.3774.9119,3.6879,8.21,3.8873,8.9577h.0563c.2211-.808,3.52-8.0187,3.9437-8.9579h1.6338v10.93ZM14.93,1.1568A.7895.7895,0,1,1,14.17.34.7894.7894,0,0,1,14.93,1.1568Zm-.17,10.6477H13.52V3.9735h1.24Zm7.38-.3381c-7.7031,3.5763-7.655-10.3421.0564-7.2674V5.4948c-5.9211-3.621-5.8948,8.5276,0,4.7323v1.2394H22.14ZM27.6618,5.27c-3.6692-1.4549-2.7036,4.6061-2.8169,6.5915H23.6054V3.9735h1.2395v1.634h.0563a2.1351,2.1351,0,0,1,2.7606-1.634Zm7.8311,2.5913c.3787,5.3174-8.0379,5.4443-7.662.0561-.4246-5.3874,8.21-5.5748,7.662-.0566Zm-1.2395.0563a2.5936,2.5936,0,1,0-5.1266,0c-.3246,3.8524,5.5459,3.9809,5.1266-.0005ZM41.2956,9.72c.0168,2.3285-3.18,2.7153-4.7886,1.8029V10.1707c1.9944,2.0033,5.5461-.5281,1.9153-1.8032C34.28,6.9587,37.7969,2.184,40.9575,4.1422V5.3815c-1.0831-1.09-4.1-.521-2.8733,1.2959C39.15,7.4537,41.46,7.9819,41.2956,9.72Zm8.5071-1.8591c.3787,5.3174-8.0376,5.4442-7.6619.0561-.4086-5.3831,8.1651-5.5819,7.6619-.0562Zm-1.2958.0563a2.5937,2.5937,0,1,0-5.1267,0c-.34,3.8584,5.59,3.9728,5.1267,0Zm6.4225-6.5915c-1.856-1.0051-2.3647,1.11-2.1409,2.6479h1.8594V5.0441H52.7885v6.76H51.4928v-6.76H50.1406V3.9735h1.3522c-.41-2.21,1.0169-4.585,3.4366-3.8308V1.3256Z" transform="translate(0 0)"/>
  <path class="b108782d-0a8c-49f1-919e-5f7d39f02a4e" d="M59.1548,11.7482c-4.1817,1.758-3.1046-4.4425-3.2113-6.7041H54.5914V3.9736h1.3521V2.0581l1.2395-.3943v2.31h1.9719v1.07H57.183c.2971,1.3377-1.1,7.1985,1.9718,5.6337Zm13.1268.0563H70.8733L69.7466,8.7621H65.07L64,11.8045H62.5916L66.7043.875h1.3523ZM69.2957,7.5791c-.1434-.4731-1.9791-5.047-1.9154-5.4086h-.0565c.0419.3676-1.7173,4.9445-1.8588,5.4086ZM79.3238,4.3115l-4.6761,6.4226H79.211v1.07H72.7887V11.41l4.62-6.3662H73.2394v-1.07h6.028v.338h.0564Zm7.4931,7.493h-1.24V10.5651h-.0562A2.8289,2.8289,0,0,1,80.2819,8.65V3.9738h1.2394c.2726,1.7428-1.0223,7.2013,1.9154,6.9858,3.15.0477,1.8155-5.1275,2.0847-6.9858h1.2393v7.831ZM93.014,5.27c-3.6694-1.4549-2.7037,4.606-2.817,6.5915h-1.24V3.9735h1.24v1.634h.0564a2.1349,2.1349,0,0,1,2.7606-1.634ZM100,8.1988H94.479c-.2107,2.8809,3.1387,3.3836,4.9579,1.8593v1.183c-3.6694,2.5643-7.8133-1.4864-5.8026-5.4649A3.419,3.419,0,0,1,100,8.1988Zm-1.2957-1.07c.2169-3.11-3.9591-2.877-4.1688-.0564h4.169v.0564Z" transform="translate(0 0)"/>
</svg>
