<svg id="b97bc1a1-2225-4772-ad1c-1fd08c0bd21c" data-name="a81c6954-0161-4c23-9a78-5567a3ca1634" xmlns="http://www.w3.org/2000/svg" width="54.7164" height="54.7164" viewBox="0 0 54.7164 54.7164">
  <defs>
    <style>
      .ad0db604-a3f1-4642-b407-7156b8dda24e {
        opacity: 0.3;
      }

      .b11c190c-894d-45de-8916-8765395c713d {
        fill: #282642;
      }

      .f9626d38-19dd-456f-97df-b13b09b9ff7c {
        fill: #fff;
      }
    </style>
  </defs>
  <g class="ad0db604-a3f1-4642-b407-7156b8dda24e">
    <circle class="b11c190c-894d-45de-8916-8765395c713d" cx="27.3582" cy="27.3582" r="27.3582"/>
    <g>
      <g>
        <path class="f9626d38-19dd-456f-97df-b13b09b9ff7c" d="M6.61,31.8465a1.1543,1.1543,0,0,1-.855-.359,1.18,1.18,0,0,1-.3505-.8549,1.1974,1.1974,0,0,1,.3505-.855A1.1459,1.1459,0,0,1,6.61,29.41a1.1712,1.1712,0,0,1,.855.3676,1.1885,1.1885,0,0,1,.359.855A1.2261,1.2261,0,0,1,6.61,31.8465Z" transform="translate(-0.2836)"/>
        <path class="f9626d38-19dd-456f-97df-b13b09b9ff7c" d="M23.598,31.6329h-2.24L13.3472,19.202a5.12,5.12,0,0,1-.4958-.9747h-.0685a15.9934,15.9934,0,0,1,.0856,2.1374V31.6329H11.0474V16.0472h2.3683l7.797,12.2086q.4872.761.6327,1.0431h.0427a16.485,16.485,0,0,1-.111-2.2912v-10.96h1.8216Z" transform="translate(-0.2836)"/>
        <path class="f9626d38-19dd-456f-97df-b13b09b9ff7c" d="M35.9263,31.6329H27.6415V16.0472h7.9v1.65H29.5056v5.1807h5.6256V24.52H29.5056v5.4032h6.4292Z" transform="translate(-0.2836)"/>
        <path class="f9626d38-19dd-456f-97df-b13b09b9ff7c" d="M48.1605,17.6975H43.6293V31.6329H41.8078V17.6975H37.3284v-1.65H48.1605Z" transform="translate(-0.2836)"/>
      </g>
      <g>
        <path class="f9626d38-19dd-456f-97df-b13b09b9ff7c" d="M22.6148,42.2342a4.214,4.214,0,0,1-1.9835.4188,3.1979,3.1979,0,0,1-2.4537-.9831,3.6428,3.6428,0,0,1-.9233-2.5649,3.8134,3.8134,0,0,1,1.0345-2.7871,3.5226,3.5226,0,0,1,2.6332-1.06,4.2151,4.2151,0,0,1,1.71.2992v.8551a3.42,3.42,0,0,0-1.71-.4274,2.6155,2.6155,0,0,0-2.0091.855,3.112,3.112,0,0,0-.77,2.2057,2.9675,2.9675,0,0,0,.7182,2.0946,2.4445,2.4445,0,0,0,1.89.7779,3.54,3.54,0,0,0,1.8723-.4786Z" transform="translate(-0.2836)"/>
        <path class="f9626d38-19dd-456f-97df-b13b09b9ff7c" d="M26.1115,42.6534a2.3758,2.3758,0,0,1-1.821-.7609,2.6582,2.6582,0,0,1-.675-1.9065,2.7692,2.7692,0,0,1,.71-2.0176,2.5647,2.5647,0,0,1,1.9065-.7268,2.3,2.3,0,0,1,1.7868.71,2.8048,2.8048,0,0,1,.6413,1.9578,2.7531,2.7531,0,0,1-.6926,1.9663A2.4281,2.4281,0,0,1,26.1115,42.6534Zm.06-4.6765a1.5645,1.5645,0,0,0-1.2483.5386,2.215,2.215,0,0,0-.4617,1.4876,2.0952,2.0952,0,0,0,.4617,1.4363,1.5818,1.5818,0,0,0,1.2483.53,1.5043,1.5043,0,0,0,1.2225-.5129,2.24,2.24,0,0,0,.4275-1.47,2.2741,2.2741,0,0,0-.4275-1.4794,1.496,1.496,0,0,0-1.2225-.53Z" transform="translate(-0.2836)"/>
        <path class="f9626d38-19dd-456f-97df-b13b09b9ff7c" d="M32.6516,38.233a1.01,1.01,0,0,0-.6241-.1625,1.0514,1.0514,0,0,0-.855.4959,2.2921,2.2921,0,0,0-.3505,1.3508v2.616h-.855V37.4037h.855v1.0687h0a1.7949,1.7949,0,0,1,.5386-.8549,1.2211,1.2211,0,0,1,.8036-.2992,1.3419,1.3419,0,0,1,.4874.0683Z" transform="translate(-0.2836)"/>
        <path class="f9626d38-19dd-456f-97df-b13b09b9ff7c" d="M37.6618,40.1823H34.0454a1.9151,1.9151,0,0,0,.436,1.3166,1.5911,1.5911,0,0,0,1.214.4617,2.5658,2.5658,0,0,0,1.59-.5728v.7693a2.9737,2.9737,0,0,1-1.7868.4874,2.172,2.172,0,0,1-1.71-.701,2.8645,2.8645,0,0,1-.6242-1.9665,2.8047,2.8047,0,0,1,.675-1.9492,2.1809,2.1809,0,0,1,1.71-.7524,1.9324,1.9324,0,0,1,1.556.65,2.7183,2.7183,0,0,1,.5471,1.8123Zm-.855-.6925a1.71,1.71,0,0,0-.3421-1.1029,1.1713,1.1713,0,0,0-.94-.3937,1.3252,1.3252,0,0,0-.9831.419,1.8878,1.8878,0,0,0-.5044,1.0858Z" transform="translate(-0.2836)"/>
      </g>
    </g>
  </g>
</svg>
