<svg id="ea2a4b7e-496e-400f-926c-741837fe7acf" data-name="b5a407a5-9efd-450a-b3c9-5ba0593a77b5" xmlns="http://www.w3.org/2000/svg" xmlns:xlink="http://www.w3.org/1999/xlink" width="110.2273" height="34.7482" viewBox="0 0 110.2273 34.7482">
  <defs>
    <style>
      .af8123b4-6811-4c42-939a-309d0a865206 {
        fill: none;
      }

      .e3996ed0-cecb-46be-a512-fa9431fbe3a3 {
        opacity: 0.3;
      }

      .ffc82cef-9a69-4fd8-853e-a6e0267a38df {
        clip-path: url(#ebb9cfa9-10ff-4cac-8819-6700aacf73e2);
      }

      .e9255376-8942-4ac9-b1d3-8853938a426f {
        clip-path: url(#b564a427-0653-481c-bd17-f289a17035d7);
      }

      .b2f2e982-a7a7-4607-b940-732cdd733514 {
        fill: #282642;
      }
    </style>
    <clipPath id="ebb9cfa9-10ff-4cac-8819-6700aacf73e2" transform="translate(-4.4388 -1.6047)">
      <rect class="af8123b4-6811-4c42-939a-309d0a865206" x="0.5445" width="120" height="38.0036"/>
    </clipPath>
    <clipPath id="b564a427-0653-481c-bd17-f289a17035d7" transform="translate(-4.4388 -1.6047)">
      <rect class="af8123b4-6811-4c42-939a-309d0a865206" y="0.001" width="120.0493" height="37.8937"/>
    </clipPath>
  </defs>
  <g class="e3996ed0-cecb-46be-a512-fa9431fbe3a3">
    <g class="ffc82cef-9a69-4fd8-853e-a6e0267a38df">
      <g class="e9255376-8942-4ac9-b1d3-8853938a426f">
        <g>
          <path class="b2f2e982-a7a7-4607-b940-732cdd733514" d="M46.9661,11.551a7.7743,7.7743,0,0,0-1.6.2,7.4616,7.4616,0,0,0-1.2.7,3.596,3.596,0,0,0-.8,1.2,4.8415,4.8415,0,0,0-.3,1.8v3.4a4.8415,4.8415,0,0,0,.3,1.8,5.6666,5.6666,0,0,0,.8,1.3,2.399,2.399,0,0,0,1.2.7,6.4992,6.4992,0,0,0,3.2,0,3.4582,3.4582,0,0,0,1.2-.7,3.5975,3.5975,0,0,0,.8-1.2,4.8455,4.8455,0,0,0,.3-1.8v-1h-3.3c-.3,0-.4-.1-.4-.4v-.3c0-.3.1-.4.4-.4h4.1c.3,0,.4.1.4.4v1.7a6.6506,6.6506,0,0,1-.3,2.1,4.3552,4.3552,0,0,1-1,1.6,4.5687,4.5687,0,0,1-1.6,1.1,7.1889,7.1889,0,0,1-2.2.4,5.3807,5.3807,0,0,1-2.2-.4,8.6327,8.6327,0,0,1-1.6-1,6.2412,6.2412,0,0,1-1-1.6,11.2079,11.2079,0,0,1-.4-2.1v-3.6a6.4637,6.4637,0,0,1,.4-2,3.36,3.36,0,0,1,1-1.6,4.3552,4.3552,0,0,1,1.6-1,4.6386,4.6386,0,0,1,2.1-.4,4.8136,4.8136,0,0,1,2.2.4,5.6046,5.6046,0,0,1,1.5,1,2.5914,2.5914,0,0,1,1,1.1,2.2364,2.2364,0,0,1,.3,1,.3676.3676,0,0,1-.1.3c-.1,0-.2.1-.3.1h-.4c-.1,0-.2,0-.2-.1s-.1-.2-.2-.3a4.0579,4.0579,0,0,0-.5-.9,5.0142,5.0142,0,0,0-.7-.8,10.9288,10.9288,0,0,0-1.1-.6C47.9661,11.651,47.4661,11.551,46.9661,11.551Zm9,3.8a2.6271,2.6271,0,0,1,2.6-1.3h.7c.3,0,.4.1.4.4v.3c0,.3-.1.4-.4.4h-.8a2.14,2.14,0,0,0-1.8.7,2.6651,2.6651,0,0,0-.7,1.8v5.9a.3676.3676,0,0,1-.1.3h-.7c-.3,0-.4-.1-.4-.4v-9a.3536.3536,0,0,1,.4-.4h.3a.3536.3536,0,0,1,.4.4Zm11.7,8.5c-.3,0-.4-.1-.4-.4v-.9a2.6542,2.6542,0,0,1-.5.6c-.2.1-.4.3-.6.4a2.9944,2.9944,0,0,1-1,.4,5.2811,5.2811,0,0,1-1.3.1,2.9524,2.9524,0,0,1-1.3-.2,2.3836,2.3836,0,0,1-1.1-.6,2.1761,2.1761,0,0,1-.7-.9,2.0149,2.0149,0,0,1-.3-1.1,2.6626,2.6626,0,0,1,.3-1.2,3.2407,3.2407,0,0,1,.8-.9,10.907,10.907,0,0,1,1.1-.6,8.3349,8.3349,0,0,1,1.5-.4l3-.4v-.7a2.1116,2.1116,0,0,0-.6-1.6,3.09,3.09,0,0,0-1.9-.5,2.8614,2.8614,0,0,0-1.7.4c-.3.3-.6.5-.7.9,0,.1-.1.2-.2.3-.1,0-.2.1-.3.1h-.2a.3673.3673,0,0,1-.3-.1c-.1-.1-.1-.2-.1-.4a2.5419,2.5419,0,0,1,.2-.7,2.0968,2.0968,0,0,1,.6-.8,2.812,2.812,0,0,1,1.1-.5,3.8085,3.8085,0,0,1,1.6-.3,4.4958,4.4958,0,0,1,1.8.3,2.5506,2.5506,0,0,1,1.2.8,2.075,2.075,0,0,1,.6,1,5.0249,5.0249,0,0,1,.2,1.2v6.3c0,.3-.1.4-.4.4Zm-3.6-.9a2.5364,2.5364,0,0,0,1.2-.2,3.5911,3.5911,0,0,0,1-.7,2.5515,2.5515,0,0,0,.7-1,3.9,3.9,0,0,0,.2-1.6v-.6l-2.4.3c-2.1.3-3.2,1-3.2,2a1.8816,1.8816,0,0,0,.2.8,3.3939,3.3939,0,0,0,.6.6,1.1349,1.1349,0,0,0,.8.3A2.7682,2.7682,0,0,0,64.0661,22.951Zm11.7,1.1a4.2107,4.2107,0,0,1-2-.4,3.1786,3.1786,0,0,1-1.2-1.1v4.5c0,.3-.1.4-.4.4h-.3c-.3,0-.4-.1-.4-.4v-12.6c0-.3.1-.4.4-.4h.3c.3,0,.4.1.4.4v.9a4.2628,4.2628,0,0,1,1.2-1.1,3.966,3.966,0,0,1,2-.4,3.8076,3.8076,0,0,1,1.9.4,6.4223,6.4223,0,0,1,1.3,1,6.1122,6.1122,0,0,1,.7,1.4,9.0063,9.0063,0,0,1,.3,1.6v1.2a5.0815,5.0815,0,0,1-.3,1.7,3.6956,3.6956,0,0,1-.7,1.4,2.6832,2.6832,0,0,1-1.3,1A3.1982,3.1982,0,0,1,75.7661,24.051Zm-3.2-5.8v1.4a5.0149,5.0149,0,0,0,.2,1.2,2.0745,2.0745,0,0,0,.6,1,3.9131,3.9131,0,0,0,1,.8,2.5023,2.5023,0,0,0,1.3.3,2.9038,2.9038,0,0,0,1.4-.3,1.7644,1.7644,0,0,0,.9-.8,3.6976,3.6976,0,0,0,.5-1.1,5.07,5.07,0,0,0,.2-1.3v-1.1a5.07,5.07,0,0,0-.2-1.3,3.6987,3.6987,0,0,0-.5-1.1,2.3608,2.3608,0,0,0-.9-.8,5.9035,5.9035,0,0,0-1.4-.2,3.195,3.195,0,0,0-1.4.3,3.9152,3.9152,0,0,0-1,.8,10.9088,10.9088,0,0,0-.6,1.1C72.6661,17.451,72.5661,17.851,72.5661,18.251Zm11-2.9a6.2763,6.2763,0,0,1,1.2-1.1,3.7369,3.7369,0,0,1,2-.4,4.6718,4.6718,0,0,1,1.7.3,2.7311,2.7311,0,0,1,1.2.9,3.09,3.09,0,0,1,.7,1.4,4.1474,4.1474,0,0,1,.3,1.6v5.4c0,.3-.1.4-.4.4h-.3c-.3,0-.4-.1-.4-.4v-5.3a3.613,3.613,0,0,0-.7-2.4,3.3748,3.3748,0,0,0-2.3-.8,2.94,2.94,0,0,0-2.2.9,3.1987,3.1987,0,0,0-.8,2.3v5.3c0,.3-.1.4-.4.4h-.3c-.3,0-.4-.1-.4-.4v-12.6c0-.3.1-.4.4-.4h.3c.3,0,.4.1.4.4v4.5Zm14.8-5a6.4482,6.4482,0,0,1,2,.3,3.9151,3.9151,0,0,1,1.6,1,4.356,4.356,0,0,1,1,1.6,5.27,5.27,0,0,1,.4,2.3v3.2a5.8289,5.8289,0,0,1-1.4,4l1.2,1.7v.2a.3536.3536,0,0,1-.4.4h-.4a.7578.7578,0,0,1-.4-.2c-.1-.1-.2-.2-.2-.3l-.8-1.2a5.6661,5.6661,0,0,1-2.7.6,4.9238,4.9238,0,0,1-3.7-1.3,5.631,5.631,0,0,1-1.3-4v-3.2a7.3053,7.3053,0,0,1,.4-2.3,4.8823,4.8823,0,0,1,1-1.6,4.3552,4.3552,0,0,1,1.6-1A14.9184,14.9184,0,0,1,98.3661,10.351Zm0,1.2a7.7225,7.7225,0,0,0-1.5.2,3.458,3.458,0,0,0-1.2.7,4.1092,4.1092,0,0,0-.8,1.3,6.4452,6.4452,0,0,0-.3,2v3a5.41,5.41,0,0,0,.3,1.9,5.6666,5.6666,0,0,0,.8,1.3,3.596,3.596,0,0,0,1.2.8,3.8856,3.8856,0,0,0,1.5.2,7.7169,7.7169,0,0,0,1.5-.2,3.166,3.166,0,0,0,1.2-.8,4.111,4.111,0,0,0,.8-1.3,5.4142,5.4142,0,0,0,.3-1.9v-3a5.4149,5.4149,0,0,0-.3-1.9,4.111,4.111,0,0,0-.8-1.3,2.4013,2.4013,0,0,0-1.2-.7A4.0144,4.0144,0,0,0,98.3661,11.551Zm9.3,11.2h6.6c.3,0,.4.1.4.4v.3c0,.3-.1.4-.4.4h-7.3c-.3,0-.4-.1-.4-.4v-12.4c0-.3.1-.4.4-.4h.4c.3,0,.4.1.4.4C107.6661,11.051,107.6661,22.751,107.6661,22.751Zm-100.4,5.4-1.3-.7,14.3-24.7,1.3.7Z" transform="translate(-4.4388 -1.6047)"/>
          <path class="b2f2e982-a7a7-4607-b940-732cdd733514" d="M5.7661,25.351h28.5v1.5h-28.5Z" transform="translate(-4.4388 -1.6047)"/>
          <path class="b2f2e982-a7a7-4607-b940-732cdd733514" d="M20.5661,34.451l-14.3-8.2.7-1.3,14.3,8.2Zm12.4-21.5-14.3-8.2.7-1.3,14.3,8.2Z" transform="translate(-4.4388 -1.6047)"/>
          <path class="b2f2e982-a7a7-4607-b940-732cdd733514" d="M7.0661,12.951l-.7-1.3,14.3-8.2.7,1.3Z" transform="translate(-4.4388 -1.6047)"/>
          <path class="b2f2e982-a7a7-4607-b940-732cdd733514" d="M32.6661,28.151l-14.3-24.7,1.3-.7,14.3,24.7Zm-25.8-17.4h1.5v16.4h-1.5Zm24.8,0h1.5v16.4h-1.5Z" transform="translate(-4.4388 -1.6047)"/>
          <path class="b2f2e982-a7a7-4607-b940-732cdd733514" d="M20.2661,33.851l-.6-1.1,12.4-7.2.6,1.1Z" transform="translate(-4.4388 -1.6047)"/>
          <path class="b2f2e982-a7a7-4607-b940-732cdd733514" d="M35.0661,27.651a3.1184,3.1184,0,0,1-4.2652,1.1207l-.0348-.0207A3.0246,3.0246,0,0,1,29.62,24.63q.0225-.04.0462-.079a3.2083,3.2083,0,0,1,4.3-1.1,3.5812,3.5812,0,0,1,1.5,1.9,2.4068,2.4068,0,0,1-.4,2.3m-24.8-14.3a3.1184,3.1184,0,0,1-4.2652,1.1207l-.0348-.0207a3.1385,3.1385,0,1,1,4.3206-1.1348l-.0206.0348m-5.4,14.3a3.0654,3.0654,0,0,1,1.0922-4.1954l.0078-.0046a3.2083,3.2083,0,0,1,4.3,1.1,3.0656,3.0656,0,0,1-1.0922,4.1955l-.0078.0045a3.1183,3.1183,0,0,1-4.2794-1.0652l-.0206-.0348m24.9-14.3a3.1385,3.1385,0,1,1,4.3,1.1h0a3.0739,3.0739,0,0,1-4.2334-.9875q-.0345-.0555-.0666-.1125m-9.8,23a3.1009,3.1009,0,1,1,3.1-3.1036v.0036a2.9941,2.9941,0,0,1-2.8843,3.1q-.1078.0039-.2157,0m0-28.6a3.0732,3.0732,0,1,1,2.2-.9,2.94,2.94,0,0,1-2.2.9" transform="translate(-4.4388 -1.6047)"/>
        </g>
      </g>
    </g>
  </g>
</svg>
