<svg id="e74e4a59-04b1-49c9-a91c-698f62458d5a" data-name="e13e71a6-702e-4430-ab9c-b591b0a0ed0b" xmlns="http://www.w3.org/2000/svg" width="100" height="22.9112" viewBox="0 0 100 22.9112">
  <defs>
    <style>
      .f0104701-40ac-4865-9b5a-3db7d6135a9e {
        opacity: 0.3;
      }

      .bdc48fc3-117c-414f-8a9b-8627e4b68869 {
        fill: #282642;
      }
    </style>
  </defs>
  <g class="f0104701-40ac-4865-9b5a-3db7d6135a9e">
    <path class="bdc48fc3-117c-414f-8a9b-8627e4b68869" d="M2.0018,5.3935l.0808-.26c-.0459,0,.3533-.6151.31-.6151-8.9367,9.508,9.6644,21.3738,14.9042,10.272-6.2329,5.94-18.1049-.9691-15.295-9.3969" transform="translate(-0.0004 0)"/>
    <path class="bdc48fc3-117c-414f-8a9b-8627e4b68869" d="M10.3568,6.3574c.9614,2.3031,5.6354,3.044,7.1861.2181-4.2353,2.8294-7.9231-.87-6.7914-4.7172a3.7881,3.7881,0,0,0-.3947,4.4991" transform="translate(-0.0004 0)"/>
    <path class="bdc48fc3-117c-414f-8a9b-8627e4b68869" d="M11.0372,13.4278c3.327.4471,5.8078-.953,6.6648-3.1274C13.2673,15.1039,3.8485,9.196,7.0113,2.7,3.2906,6.2614,6.26,12.7725,11.0372,13.4278" transform="translate(-0.0004 0)"/>
    <path class="bdc48fc3-117c-414f-8a9b-8627e4b68869" d="M95.8061,1.7077,89.7977,10.03l-.543-2.1787H85.3074c.4292,2.0256,2.2321,7.2411.9246,9.2709l3.8384-.02c-.1736-3.23,8.787-13.311,9.93-15.3709Z" transform="translate(-0.0004 0)"/>
    <path class="bdc48fc3-117c-414f-8a9b-8627e4b68869" d="M87.8655,3.9345c-.844-.5061-2.8482-.2857-4.5646-.2857-1.188.1611-5.29-.4527-5.4741.53-.5168,1.9826-2.72,12.9241-2.72,12.9241H78.642L80.956,7.036c1.9384.0169,7.8919-.0482,8.1565-.0589,0,0-.4754-2.5734-1.2475-3.0423" transform="translate(-0.0004 0)"/>
    <path class="bdc48fc3-117c-414f-8a9b-8627e4b68869" d="M74.3244,5.0053C67.0307-.2783,60.13,7.6854,61.9461,14.9371c1.0416,3.5638,10.7682,2.0527,11.0174,2.3117l.7219-3.1993c-.28-.3274-8.9856,1.3831-8.2025-2.1043,1.7576-.7039,8.754-.1167,8.8415-.2729.1149-.2757,1.0788-5.2144,0-6.667M71.4,8.8371l-5.2712-.0327c-.6721-1.8931,5.407-3.8056,5.2712.0327" transform="translate(-0.0004 0)"/>
    <path class="bdc48fc3-117c-414f-8a9b-8627e4b68869" d="M58.5108,3.6357l-2.447,10.2022c-.7182-.0485-3.6845.2674-3.81-.68-.3771-2.1083,1.6689-9.172,1.5593-9.5414l-3.5549.0328c-2.085,10.2593-5.22,14.6453,8.7977,13.456C60.0308,12.682,61.9391,3.616,61.9391,3.616Z" transform="translate(-0.0004 0)"/>
    <path class="bdc48fc3-117c-414f-8a9b-8627e4b68869" d="M47.22,5.1317C44.991-4.0594,31.617.4667,31.305,7.9869c-3.1962,10.71,7.1946,9.3946,14.8381,9.2069.27-.0082,1.0463-3.1706.9788-3.2731-.0677-.0785-.9923.0327-2.0479-.0632C46.11,11.1248,47.6128,7.98,47.22,5.1317m-4.7609,5.0335c-.3423,1.2126-.68,2.4426-1.0882,3.5374-7.7258,1.28-7.4959-4.1936-4.49-8.844,3.8766-3.4854,8.1858.2039,5.5787,5.3066" transform="translate(-0.0004 0)"/>
    <path class="bdc48fc3-117c-414f-8a9b-8627e4b68869" d="M26,6.9h3.81c.2377-1.0294.4689-2.2092.6979-3.2494-1.339,0-2.4732-.0153-3.6933-.0153C26.5193,4.628,26.2947,5.7621,26,6.9" transform="translate(-0.0004 0)"/>
    <path class="bdc48fc3-117c-414f-8a9b-8627e4b68869" d="M24.3668,14.1083c-.5605,2.6432-.6347,5.3868-3.5352,5.0335-.2791,1.0207-.63,2.3881-.9422,3.5287,8.9132,2.0282,7.9124-9.2717,9.6461-14.8191H25.8629c-.1854.615-1.1711,4.73-1.4961,6.2569" transform="translate(-0.0004 0)"/>
  </g>
</svg>
