<svg id="e6da671b-6c11-4c6e-8e57-51fb2654d090" data-name="a677071b-9149-4b11-88b1-f0d778c91747" xmlns="http://www.w3.org/2000/svg" xmlns:xlink="http://www.w3.org/1999/xlink" width="120.478" height="33.5212" viewBox="0 0 120.478 33.5212">
  <defs>
    <style>
      .a92ba71e-18da-4a5e-b5bb-c1d471f40d79 {
        fill: none;
      }

      .f9a5ba87-59ff-4da0-905d-04c8faa875db {
        fill: #282642;
      }

      .a5eab2cc-5fcf-4a07-8621-3ecbd31a2f86 {
        opacity: 0.3;
      }

      .e963ab97-898e-4efa-abea-5f810c6dba28 {
        clip-path: url(#bb2ddae8-d2aa-4f92-bc02-6bb70f887bbf);
      }

      .b8cf8e22-78fa-403d-aade-a32bbfe89a3e {
        fill: url(#fa35d7fe-692d-4d52-8361-777d1a1520d0);
      }

      .eb196cdb-1e05-4e75-866d-92fd1c2933f3 {
        clip-path: url(#e357b465-82a0-417b-af7f-4c7440c46798);
      }

      .ea3eedba-d503-4429-9562-fa27529294ed {
        fill: url(#b7f301e7-c2cb-4580-b1b4-c911cc3e1de9);
      }

      .fc084619-5818-48f7-871c-5abc1d66cd84 {
        clip-path: url(#a1b7c3e3-f5e6-467b-b88c-99d0d8fe8e33);
      }
    </style>
    <clipPath id="bb2ddae8-d2aa-4f92-bc02-6bb70f887bbf">
      <path class="a92ba71e-18da-4a5e-b5bb-c1d471f40d79" d="M2.2429,24.5276a13.1222,13.1222,0,0,0-.8564,1.7114l5.0682-1.4926c-.24.0781-.8819-3.3479-.5479-3.3994L6.916,20.93c-.2229.1453-.06,3.3066.3718,3.3568A46.6638,46.6638,0,0,0,9.9,19.5254l.745-.3071a26.9324,26.9324,0,0,1-2.39,5.0022,27.232,27.232,0,0,0,4.7819-1.6894A9.2444,9.2444,0,0,1,10.8215,19.13l.4612-.1969a10.0359,10.0359,0,0,0,2.2154,3.1586,13.6611,13.6611,0,0,0,.57-4.3206l.5934-.2644a20.0547,20.0547,0,0,1-.4392,4.6524l3.9489-2.1947L14.88,17.5069l.4378-.1748,3.16,2.2374-.1307-3.2908.7448-.307c1.31,3.35-1.4158,15.7192-3.511,17.55-1.0122.5476-22.529-2.0894-12.3973-10.4628,0,0-.5907.9653-.94,1.4692m.0206,3.9268A9.9054,9.9054,0,0,0,3.5158,29.706L6.5215,25.45,1.4526,26.6548a5.6622,5.6622,0,0,0,.8109,1.8m4.9155-2.72L3.8442,29.9689,9.9,27.9945a10.0286,10.0286,0,0,1-2.721-2.2594M6.0816,31.2632c.8784.3731,1.9744.7242,1.9744.7242l2.1948-3.3334L4.2393,30.21a12.0017,12.0017,0,0,0,1.8423,1.0533m5.1784-2.72-2.6588,3.533a67.6228,67.6228,0,0,0,7.8138-2.2167c-.3317.1315-4.7814-.8368-5.155-1.3163m1.3383,4.3c1.3163.1543,2.8075.2865,2.8075.2865.1231-.3,1.0349-2.7292,1.1194-2.9851a45.1822,45.1822,0,0,1-7.13,2.1507s1.8863.3951,3.2026.5479M9.2635,26.5667c.5921.4406,1.4912,1.0106,1.4912,1.0106a30.4424,30.4424,0,0,0,2.3035-4.19c-.4562.2291-4.8226,1.57-5.2651,1.7114a12.1743,12.1743,0,0,0,1.47,1.4678m4.6952-3.42c-.0794.4327-1.7877,3.8738-1.9759,4.2339.69-.2214,5.3555-2.3249,5.9468-2.5706a18.41,18.41,0,0,1-3.9709-1.6633m.4171-.4832A14.7655,14.7655,0,0,0,18.1925,24.4a23.3633,23.3633,0,0,0,.241-4.1058c-.4773.3621-3.6007,2.1156-4.0577,2.37m3.7066,2.4783c-.59.3818-5.6271,2.6759-6.2964,2.897.1811.56,4.7964,1.4821,5.0021,1.3383.1808-.2768,1.2317-3.8927,1.2943-4.2353"/>
    </clipPath>
    <linearGradient id="fa35d7fe-692d-4d52-8361-777d1a1520d0" x1="-531.6224" y1="-31.7623" x2="-530.9178" y2="-31.7623" gradientTransform="translate(14217.2337 874.141) scale(26.7422)" gradientUnits="userSpaceOnUse">
      <stop offset="0" stop-color="#67696b"/>
      <stop offset="1" stop-color="#d1d3d2"/>
    </linearGradient>
    <clipPath id="e357b465-82a0-417b-af7f-4c7440c46798">
      <path class="a92ba71e-18da-4a5e-b5bb-c1d471f40d79" d="M5.915,3.5469C5.8934,2.783,13.0455-.2088,13.0981,0a45.0158,45.0158,0,0,0,2.8556,6.0073l-.9156-.1418L13.9972,3.8773l-2.2387,1.72-.8234-.19L13.76,3.5937a36.9438,36.9438,0,0,1-5.536-.9776l2.5706,2.6491L9.5486,5.14,7.94,2.6946c-.2178-.0716-1.475,1.4625-1.2928,1.688Zm2.6862-1.231,5.1908.8358A11.7382,11.7382,0,0,1,12.9563.3759a21.9889,21.9889,0,0,0-4.3551,1.94"/>
    </clipPath>
    <linearGradient id="b7f301e7-c2cb-4580-b1b4-c911cc3e1de9" x1="-520.9666" y1="-30.2454" x2="-520.2616" y2="-30.2454" gradientTransform="translate(7424.5834 433.7037) scale(14.2402)" xlink:href="#fa35d7fe-692d-4d52-8361-777d1a1520d0"/>
    <clipPath id="a1b7c3e3-f5e6-467b-b88c-99d0d8fe8e33">
      <path class="f9a5ba87-59ff-4da0-905d-04c8faa875db" d="M8.8725,17.1352C12.9577,11.8927,8.8477,6.253,6.06,4.32a.6879.6879,0,0,1-.1453-.84c6.43,3.1851,21.2826,1.6428,25.3027,10.1144C24.19,14.3407,8.239,19.619,2.6653,23.4882a38.3249,38.3249,0,0,0,6.2069-6.3528M7.4489,4.8672A20.7522,20.7522,0,0,1,9.9671,7.8247a11.8065,11.8065,0,0,0-.73-2.4452Zm2.5182.694L10.734,8.3l2.7028-2.1534Zm4.0178.8275L11.31,8.7363l3.1173.92a9.3777,9.3777,0,0,0-.4419-3.2673m.6581.1129a11.1094,11.1094,0,0,1,.3745,3.1544l3.869-2.3558a27.9364,27.9364,0,0,0-4.244-.7989m5.0145,1.0313L15.5723,9.9851c.0659.0235,2.4009,1.3539,2.4509,1.4264.427-.1121,1.7546-3.6446,1.6343-3.8786m.5164,0a21.1814,21.1814,0,0,1-1.0245,3.6914c.6462-.51,5.354-1.84,6.0473-1.9717a49.3154,49.3154,0,0,0-5.0228-1.72m5.4276,2.1231a40.2442,40.2442,0,0,0-6.3488,2.3476,14.327,14.327,0,0,1,2.4426,2.6394c.2153-.149,3.6954-4.58,3.9062-4.987m.4791.0565c.0676.7286-3.2561,4.8629-3.6528,4.976.055-.1395,7.7708-1.5539,8.1221-1.3425-.0241-.3974-4.1285-3.6812-4.4693-3.6335M11.0493,9.656a11.3635,11.3635,0,0,1,.07,3.2907l2.7372-2.5334A14.5258,14.5258,0,0,0,11.049,9.656m3.0939,1.3975-2.8337,2.43a5.8184,5.8184,0,0,1,1.348,1.1593c.3326-.0737,1.5281-3.3127,1.4857-3.5895m.709-.2327a15.0434,15.0434,0,0,1-.9954,3.1366l3.2439-1.91Zm2.0887,2.1823L13.08,15.13c.0727.0939.7079,1.84.7214,1.962a25.4216,25.4216,0,0,0,3.1392-4.088M18.26,12.731c-.2055.4589-3.3455,4.054-3.6666,4.3606l6.46-2.1121a14.2381,14.2381,0,0,0-2.7931-2.249m-7.92,2.7661c-.2863.5316-.804,1.377-.804,1.377l2.3723-1.69a2.5577,2.5577,0,0,0-1.078-.8179,8.4491,8.4491,0,0,1-.49,1.13m1.1318.7092-2.3985,1.459L7.4778,19.6548a21.6653,21.6653,0,0,0,3.9942-3.449m.98-.3677A24.7229,24.7229,0,0,1,8.46,19.6548c.5694-.2291,4.0277-1.8667,4.73-2.1548a4.6722,4.6722,0,0,0-.7367-1.6619"/>
    </clipPath>
  </defs>
  <g class="a5eab2cc-5fcf-4a07-8621-3ecbd31a2f86">
    <g class="e963ab97-898e-4efa-abea-5f810c6dba28">
      <rect class="b8cf8e22-78fa-403d-aade-a32bbfe89a3e" y="15.9717" width="19.6189" height="17.5495"/>
    </g>
    <g class="eb196cdb-1e05-4e75-866d-92fd1c2933f3">
      <rect class="ea3eedba-d503-4429-9562-fa27529294ed" x="5.915" width="10.0387" height="6.0073"/>
    </g>
    <g>
      <path class="f9a5ba87-59ff-4da0-905d-04c8faa875db" d="M8.8725,17.1352C12.9577,11.8927,8.8477,6.253,6.06,4.32a.6879.6879,0,0,1-.1453-.84c6.43,3.1851,21.2826,1.6428,25.3027,10.1144C24.19,14.3407,8.239,19.619,2.6653,23.4882a38.3249,38.3249,0,0,0,6.2069-6.3528M7.4489,4.8672A20.7522,20.7522,0,0,1,9.9671,7.8247a11.8065,11.8065,0,0,0-.73-2.4452Zm2.5182.694L10.734,8.3l2.7028-2.1534Zm4.0178.8275L11.31,8.7363l3.1173.92a9.3777,9.3777,0,0,0-.4419-3.2673m.6581.1129a11.1094,11.1094,0,0,1,.3745,3.1544l3.869-2.3558a27.9364,27.9364,0,0,0-4.244-.7989m5.0145,1.0313L15.5723,9.9851c.0659.0235,2.4009,1.3539,2.4509,1.4264.427-.1121,1.7546-3.6446,1.6343-3.8786m.5164,0a21.1814,21.1814,0,0,1-1.0245,3.6914c.6462-.51,5.354-1.84,6.0473-1.9717a49.3154,49.3154,0,0,0-5.0228-1.72m5.4276,2.1231a40.2442,40.2442,0,0,0-6.3488,2.3476,14.327,14.327,0,0,1,2.4426,2.6394c.2153-.149,3.6954-4.58,3.9062-4.987m.4791.0565c.0676.7286-3.2561,4.8629-3.6528,4.976.055-.1395,7.7708-1.5539,8.1221-1.3425-.0241-.3974-4.1285-3.6812-4.4693-3.6335M11.0493,9.656a11.3635,11.3635,0,0,1,.07,3.2907l2.7372-2.5334A14.5258,14.5258,0,0,0,11.049,9.656m3.0939,1.3975-2.8337,2.43a5.8184,5.8184,0,0,1,1.348,1.1593c.3326-.0737,1.5281-3.3127,1.4857-3.5895m.709-.2327a15.0434,15.0434,0,0,1-.9954,3.1366l3.2439-1.91Zm2.0887,2.1823L13.08,15.13c.0727.0939.7079,1.84.7214,1.962a25.4216,25.4216,0,0,0,3.1392-4.088M18.26,12.731c-.2055.4589-3.3455,4.054-3.6666,4.3606l6.46-2.1121a14.2381,14.2381,0,0,0-2.7931-2.249m-7.92,2.7661c-.2863.5316-.804,1.377-.804,1.377l2.3723-1.69a2.5577,2.5577,0,0,0-1.078-.8179,8.4491,8.4491,0,0,1-.49,1.13m1.1318.7092-2.3985,1.459L7.4778,19.6548a21.6653,21.6653,0,0,0,3.9942-3.449m.98-.3677A24.7229,24.7229,0,0,1,8.46,19.6548c.5694-.2291,4.0277-1.8667,4.73-2.1548a4.6722,4.6722,0,0,0-.7367-1.6619"/>
      <g class="fc084619-5818-48f7-871c-5abc1d66cd84">
        <rect class="f9a5ba87-59ff-4da0-905d-04c8faa875db" x="2.6656" y="3.4794" width="28.5521" height="20.0086"/>
      </g>
    </g>
    <polygon class="f9a5ba87-59ff-4da0-905d-04c8faa875db" points="16.807 32.389 17.583 32.389 17.583 32.497 17.256 32.497 17.256 33.339 17.132 33.339 17.132 32.497 16.807 32.497 16.807 32.389"/>
    <polygon class="f9a5ba87-59ff-4da0-905d-04c8faa875db" points="17.733 32.389 17.917 32.389 18.151 33.035 18.387 32.389 18.571 32.389 18.571 33.339 18.449 33.339 18.449 32.505 18.213 33.156 18.088 33.156 17.852 32.505 17.852 33.339 17.733 33.339 17.733 32.389"/>
    <g>
      <path class="f9a5ba87-59ff-4da0-905d-04c8faa875db" d="M62.2573,7.12a1.0517,1.0517,0,1,1-.99.99,1.0517,1.0517,0,0,1,.99-.99m0,.1451a.9063.9063,0,1,0,.8565.8565.9063.9063,0,0,0-.8565-.8565M62.23,7.56c.4725-.0854.6888.54.2057.6429.1377.078.278.4025.3729.54h-.2351c-.1341-.1884-.2418-.5732-.5235-.5052v.5052h-.2113V7.56Zm-.0092.1451H62.05V8.096c.3907.13.6773-.3773.1708-.3913"/>
      <path class="f9a5ba87-59ff-4da0-905d-04c8faa875db" d="M39.7024,11.2847h-.52c.0106-.6968-.0325-3.2072.0423-3.8742h-.011c.0788.0531-1.5945,3.6885-1.6644,3.8742H37.294c-.0894-.24-1.727-3.7381-1.6607-3.8742h-.0128c.05.4971.0167,3.2875.0256,3.8742h-.507V6.8079h.6944c.1525.3774,1.5029,3.346,1.5781,3.6594h.02c.0954-.3359,1.4492-3.2724,1.6166-3.6594h.654Z"/>
      <path class="f9a5ba87-59ff-4da0-905d-04c8faa875db" d="M41.0728,7.2781a.3326.3326,0,1,1,.3225-.3225.3326.3326,0,0,1-.3225.3225m.25,4.0066H40.812V8.0883h.5107Z"/>
      <path class="f9a5ba87-59ff-4da0-905d-04c8faa875db" d="M44.5393,11.1378c-3.1051,1.4988-3.11-4.264.0073-2.9668v.5235c-2.4224-1.4711-2.4418,3.5167-.0073,1.9565Z"/>
      <path class="f9a5ba87-59ff-4da0-905d-04c8faa875db" d="M46.9807,8.6064c-1.4877-.627-1.117,1.8737-1.1555,2.6783h-.5125V8.0883h.5125v.6594h.0128a.8981.8981,0,0,1,1.0666-.69q.0384.0083.0761.02Z"/>
      <path class="f9a5ba87-59ff-4da0-905d-04c8faa875db" d="M48.7883,11.36c-2.1189.0927-2.0307-3.5032.0736-3.347,2.0828-.1092,1.9783,3.4839-.0736,3.347m.0367-2.9153c-1.4242-.0669-1.4329,2.5523,0,2.4836,1.3955.0865,1.3893-2.5682,0-2.4836"/>
      <path class="f9a5ba87-59ff-4da0-905d-04c8faa875db" d="M51.0037,11.1708v-.5493c1.4468.948,2.359-.4849.49-.9239-1.3878-.8864.4552-2.18,1.4827-1.5414v.52c-1.3773-.7947-2.101.6132-.3856.9771,1.5408.9427-.5461,2.26-1.5874,1.5175"/>
      <path class="f9a5ba87-59ff-4da0-905d-04c8faa875db" d="M55.2454,11.36c-2.1164.0911-2.0288-3.5036.0754-3.347,2.083-.1089,1.9792,3.4856-.0754,3.347m.0386-2.9153c-1.4247-.0675-1.4324,2.5528,0,2.4836,1.3946.0851,1.3883-2.5669,0-2.4836"/>
      <path class="f9a5ba87-59ff-4da0-905d-04c8faa875db" d="M59.12,7.0026c-.7474-.3943-.969.4547-.8763,1.0857h.7477v.4372h-.7477v2.7592h-.5088V8.5255H57.189V8.0883h.5456C57.57,7.1935,58.13,6.196,59.12,6.54Z"/>
      <path class="f9a5ba87-59ff-4da0-905d-04c8faa875db" d="M61.14,11.2535c-1.7168.7369-1.2727-1.8048-1.3171-2.728H59.274V8.0883h.5493V7.3076l.5125-.1654v.9461H61.14v.4372h-.8046c.1212.54-.4507,2.9761.8046,2.2908Z"/>
      <path class="f9a5ba87-59ff-4da0-905d-04c8faa875db" d="M44.0727,21.0778c-.2865,4.0131-5.7035,3.807-8.4485,2.4507v-1.826h.101c2.1953,2.79,10.291.8786,5.39-2.0325-9.732-.6492-4.7571-9.4116,2.5163-5.8576v1.7214h-.1028c-1.5881-1.7137-7.7552-1.9212-5.9706,1.5837,1.9158,1.4478,6.6589.3742,6.5144,3.96"/>
      <path class="f9a5ba87-59ff-4da0-905d-04c8faa875db" d="M56.19,26.8921c-2.0391.5939-4.6471.04-4.6513-2.5094C45.387,25.5408,43.6119,15.59,48.781,13.399c6.7255-2.9349,10.08,8.0109,4.1626,10.6456-.1051,1.976,1.8376,1.9231,3.246,1.5082Zm-1.7378-8.1638a3.6444,3.6444,0,1,0-7.1459,0,3.6434,3.6434,0,1,0,7.1459,0"/>
      <polygon class="f9a5ba87-59ff-4da0-905d-04c8faa875db" points="65.213 24.206 58.28 24.206 58.28 13.245 59.737 13.245 59.737 22.911 65.213 22.911 65.213 24.206"/>
      <path class="f9a5ba87-59ff-4da0-905d-04c8faa875db" d="M79.935,21.0778c-.2872,4.0133-5.7046,3.8069-8.45,2.4507v-1.826h.1029c2.1965,2.7915,10.29.8767,5.39-2.0325-9.7343-.649-4.759-9.4113,2.5163-5.8576v1.7214h-.1028c-1.5874-1.7123-7.7551-1.9223-5.9706,1.5837,1.9156,1.4483,6.6574.3738,6.5144,3.96"/>
      <path class="f9a5ba87-59ff-4da0-905d-04c8faa875db" d="M89.0485,20.2383H82.99c-.2172,3.2548,3.9015,3.6138,5.8234,1.9583h.0735v1.5082c-4.7306,2.791-9.7107-2.5081-6.2016-6.7645a3.7018,3.7018,0,0,1,6.3632,3.298ZM87.7,19.1784c.2443-3.175-4.6632-2.8643-4.71,0Z"/>
      <path class="f9a5ba87-59ff-4da0-905d-04c8faa875db" d="M96.2771,17.4939a3.9858,3.9858,0,0,0-3.7475.8744v5.838H91.1463V15.9838H92.53v1.2143a4.1141,4.1141,0,0,1,3.7475-1.1261Z"/>
      <polygon class="f9a5ba87-59ff-4da0-905d-04c8faa875db" points="104.691 15.984 101.364 24.206 99.971 24.206 96.667 15.984 98.167 15.984 100.715 22.527 103.239 15.984 104.691 15.984"/>
      <path class="f9a5ba87-59ff-4da0-905d-04c8faa875db" d="M113.2512,20.2383h-6.0585c-.2191,3.2529,3.9034,3.6152,5.8215,1.9583h.0753v1.5082c-4.73,2.7907-9.7109-2.5078-6.2015-6.7645a3.7018,3.7018,0,0,1,6.3632,3.298Zm-1.3466-1.06c.2382-3.1744-4.6634-2.8649-4.7119,0Z"/>
      <path class="f9a5ba87-59ff-4da0-905d-04c8faa875db" d="M120.478,17.4939a3.9839,3.9839,0,0,0-3.7457.8744v5.838H115.349V15.9838h1.3833v1.2143a4.11,4.11,0,0,1,3.7457-1.1261Z"/>
    </g>
  </g>
</svg>
