<svg id="b49e1203-f658-4b51-9675-e58913b73f91" data-name="Layer 1" xmlns="http://www.w3.org/2000/svg" xmlns:xlink="http://www.w3.org/1999/xlink" width="108" height="114.2262" viewBox="0 0 108 114.2262">
  <defs>
    <style>
      .a9361e69-4f12-4392-af5d-84de2a51d125, .b5c760f4-1b80-42c7-8ea6-8f5ff7831761 {
        fill: #fff;
      }

      .a0dd5929-5156-4108-801e-4a4343ef980d, .a4afb587-7eab-47e0-9d36-30ea2fa270cf, .ad36e873-1f30-4c59-b82b-ba2993e523fe, .aff709f7-cbe0-4349-acd4-aac2901927c1, .b3543232-35be-4d94-9546-26481d11ae96, .b5c760f4-1b80-42c7-8ea6-8f5ff7831761, .b7a0dc08-b2b5-43aa-9679-caf53555da4a, .b9d1e0d3-9ead-440b-be44-c3153bcc0b75, .bd6104f8-1178-4673-8e5f-d9c9639777f9, .bdfddcd2-6a39-4f9d-9671-a644031c0f2c, .bef4ec7c-73b5-41a4-b1b8-a87d8d42d364, .f4ba5c86-17e7-44cd-b684-1c4896a6ea5c {
        fill-rule: evenodd;
      }

      .f8683b42-19fc-4b7c-85da-a4a0ba6be505 {
        mask: url(#be93aa93-fc7e-4c96-a71b-86fa8e81672e);
      }

      .a1cd79f6-6181-45d6-935c-b764b67c688f {
        fill: #ffd15d;
      }

      .b314e7d0-0a15-496e-963d-e1c1825e6e4d {
        mask: url(#bfd93005-ec58-4b22-8c9b-d1a700096373);
      }

      .b9d1e0d3-9ead-440b-be44-c3153bcc0b75 {
        fill: #d0c6ac;
      }

      .a87966bb-e20f-4fad-9510-76f53b192578 {
        mask: url(#a67f9af2-05a0-4fb7-a55a-b620a0c597a5);
      }

      .b9387723-bbe7-42f7-8d98-5ed4022eddcb {
        fill: #edb989;
      }

      .a19f146a-8820-4088-894e-0cfd1033d5d7 {
        mask: url(#fe467db6-8eaa-4e5b-80c9-f8f65822aba2);
      }

      .a4afb587-7eab-47e0-9d36-30ea2fa270cf, .b3543232-35be-4d94-9546-26481d11ae96, .b7a0dc08-b2b5-43aa-9679-caf53555da4a, .bdfddcd2-6a39-4f9d-9671-a644031c0f2c {
        fill: #010101;
      }

      .b3543232-35be-4d94-9546-26481d11ae96 {
        fill-opacity: 0.1;
      }

      .bef4ec7c-73b5-41a4-b1b8-a87d8d42d364 {
        fill: #e6e6e5;
      }

      .ab4e7a65-6fbc-4cf2-a02a-a9daf8df8db9 {
        mask: url(#aa10b02c-ea8d-4009-9981-2b56f1d7fbc4);
      }

      .bccd5318-4cec-4116-bbdb-50b03f05dd98 {
        fill: #272f34;
      }

      .aff709f7-cbe0-4349-acd4-aac2901927c1 {
        fill: #3b4d5a;
      }

      .a0dd5929-5156-4108-801e-4a4343ef980d {
        fill: #304452;
      }

      .f4ba5c86-17e7-44cd-b684-1c4896a6ea5c {
        fill: #f3f3f3;
      }

      .a4afb587-7eab-47e0-9d36-30ea2fa270cf {
        fill-opacity: 0.7;
      }

      .aec8ad4e-985c-4332-9417-aa9b8635f774 {
        mask: url(#ab5a9c51-3708-42a8-9359-1bdb4830b389);
      }

      .b630d3d8-b201-40ee-8bf7-d004604c8e65 {
        mask: url(#b79e0fb6-8685-4b54-b8f3-cea98d37f711);
      }

      .bd6104f8-1178-4673-8e5f-d9c9639777f9 {
        fill: #f0526e;
      }

      .bdfddcd2-6a39-4f9d-9671-a644031c0f2c {
        fill-opacity: 0.16;
      }

      .b7a0dc08-b2b5-43aa-9679-caf53555da4a {
        fill-opacity: 0.6;
      }

      .a4074706-cdd8-4a49-b7f2-791e7b2ea746 {
        mask: url(#e9c2f55f-2203-407b-a4c3-f2a7482a3190);
      }

      .ad36e873-1f30-4c59-b82b-ba2993e523fe {
        fill: #1f3141;
      }

      .ae398444-1bca-41b3-bd3e-51eeff367bcf {
        mask: url(#be43fa6a-d49a-4167-9b2f-a992b175adc5);
      }

      .a319b5d9-7580-4325-95c6-da5620755243 {
        fill: #2d1c19;
      }
    </style>
    <mask id="be93aa93-fc7e-4c96-a71b-86fa8e81672e" x="5.1975" y="15.9954" width="97.9641" height="97.9641" maskUnits="userSpaceOnUse">
      <g transform="translate(0 6.2837)">
        <g id="befd862d-b62e-4ea2-8dcc-6e6497eb69b7" data-name="mask-2">
          <circle id="f2af29bd-1a33-40f1-88ca-e7bae7fe51d1" data-name="path-1" class="a9361e69-4f12-4392-af5d-84de2a51d125" cx="54.1796" cy="58.6937" r="48.9821"/>
        </g>
      </g>
    </mask>
    <mask id="bfd93005-ec58-4b22-8c9b-d1a700096373" x="0.3483" y="-0.1524" width="107.7605" height="114.3786" maskUnits="userSpaceOnUse">
      <g transform="translate(0 6.2837)">
        <g id="ecf6ab03-347c-41b4-9ac7-599d6758fd12" data-name="mask-4">
          <path id="ab609944-8f96-4347-a82f-e99687702975" data-name="path-3" class="b5c760f4-1b80-42c7-8ea6-8f5ff7831761" d="M5.2465,58.8733a48.9821,48.9821,0,1,0,97.9641,0h4.8983V-6.4361H.3483V58.8733Z"/>
        </g>
      </g>
    </mask>
    <mask id="a67f9af2-05a0-4fb7-a55a-b620a0c597a5" x="0.2395" y="14.5422" width="107.7605" height="99.6839" maskUnits="userSpaceOnUse">
      <g transform="translate(0 6.2837)">
        <g id="f165bea4-44b0-4c67-821a-049abf0e5611" data-name="mask-6">
          <path id="a5dbcdfa-4617-42ea-8fb0-7b7f2b3605c7" data-name="path-5" class="b5c760f4-1b80-42c7-8ea6-8f5ff7831761" d="M64.025,67.2864v7.5061h1.6327A29.3892,29.3892,0,0,1,95.047,104.1817v3.6737H13.41v-3.6737A29.3892,29.3892,0,0,1,42.7994,74.7925h1.6328V67.2864a22.875,22.875,0,0,1-12.9374-18.258,4.8991,4.8991,0,0,1-4.2063-4.85V38.4641a4.9,4.9,0,0,1,4.0818-4.83V31.1168h0A22.8583,22.8583,0,0,1,54.2286,8.2585h0A22.8583,22.8583,0,0,1,77.0869,31.1168v2.5169a4.9,4.9,0,0,1,4.0818,4.83v5.7146a4.8992,4.8992,0,0,1-4.2064,4.85A22.8747,22.8747,0,0,1,64.025,67.2864Z"/>
        </g>
      </g>
    </mask>
    <mask id="fe467db6-8eaa-4e5b-80c9-f8f65822aba2" x="13.4102" y="14.5422" width="81.6368" height="99.5969" maskUnits="userSpaceOnUse">
      <g transform="translate(0 6.2837)">
        <g id="ab2a0ffb-96fa-4624-a809-4cf2020c0414" data-name="mask-6">
          <path id="a2095cea-ec2b-432d-90bc-e66f941070c3" data-name="path-5" class="b5c760f4-1b80-42c7-8ea6-8f5ff7831761" d="M64.025,67.2864v7.5061h1.6327A29.3892,29.3892,0,0,1,95.047,104.1817v3.6737H13.41v-3.6737A29.3892,29.3892,0,0,1,42.7994,74.7925h1.6328V67.2864a22.875,22.875,0,0,1-12.9374-18.258,4.8991,4.8991,0,0,1-4.2063-4.85V38.4641a4.9,4.9,0,0,1,4.0818-4.83V31.1168h0A22.8583,22.8583,0,0,1,54.2286,8.2585h0A22.8583,22.8583,0,0,1,77.0869,31.1168v2.5169a4.9,4.9,0,0,1,4.0818,4.83v5.7146a4.8992,4.8992,0,0,1-4.2064,4.85A22.8747,22.8747,0,0,1,64.025,67.2864Z"/>
        </g>
      </g>
    </mask>
    <mask id="aa10b02c-ea8d-4009-9981-2b56f1d7fbc4" x="0.2395" y="69.2062" width="107.7605" height="45.02" maskUnits="userSpaceOnUse">
      <g transform="translate(0 6.2837)">
        <g id="bc90a109-9649-46e0-9c62-9c9626042354" data-name="react-mask-71">
          <path id="a8694825-376f-4dfa-9569-9f88bcbf8676" data-name="react-path-70" class="b5c760f4-1b80-42c7-8ea6-8f5ff7831761" d="M43.2862,74.8136h-.4868A29.3892,29.3892,0,0,0,13.41,104.2028v3.6526H95.047v-3.6526A29.3892,29.3892,0,0,0,65.6577,74.8136H65.171a9.5475,9.5475,0,0,1,.0785,1.2246c0,5.6358-4.9342,10.2046-11.0209,10.2046s-11.021-4.5688-11.021-10.2046A9.5474,9.5474,0,0,1,43.2862,74.8136Z"/>
        </g>
      </g>
    </mask>
    <mask id="ab5a9c51-3708-42a8-9359-1bdb4830b389" x="46.518" y="55.3171" width="15.4241" height="12.2891" maskUnits="userSpaceOnUse">
      <g transform="translate(0 6.2837)">
        <g id="b2b79dac-366b-4bb9-8ef1-372b70325988" data-name="react-mask-95">
          <path id="eb99592f-3a72-42f4-a298-b9adee68d768" data-name="react-path-94" class="b5c760f4-1b80-42c7-8ea6-8f5ff7831761" d="M46.5212,54.4356A7.7563,7.7563,0,0,0,61.94,54.4a.8552.8552,0,0,0-.7547-.8328h-13.86A.87.87,0,0,0,46.5212,54.4356Z"/>
        </g>
      </g>
    </mask>
    <mask id="b79e0fb6-8685-4b54-b8f3-cea98d37f711" x="46.518" y="59.8506" width="15.4241" height="13.4701" maskUnits="userSpaceOnUse">
      <g transform="translate(0 6.2837)">
        <g id="b2a7d127-1f57-4332-ac81-93b768b716ba" data-name="react-mask-95">
          <path id="ad96e180-ccfe-4960-bcc9-2877293f3904" data-name="react-path-94" class="b5c760f4-1b80-42c7-8ea6-8f5ff7831761" d="M46.5212,54.4356A7.7563,7.7563,0,0,0,61.94,54.4a.8552.8552,0,0,0-.7547-.8328h-13.86A.87.87,0,0,0,46.5212,54.4356Z"/>
        </g>
      </g>
    </mask>
    <mask id="e9c2f55f-2203-407b-a4c3-f2a7482a3190" x="0.3483" y="-0.1524" width="107.7605" height="114.2915" maskUnits="userSpaceOnUse">
      <g transform="translate(0 6.2837)">
        <g id="a185a741-65bc-46be-8429-8f8ca467a05d" data-name="react-mask-37">
          <rect id="fd3b357e-87fc-4628-82ea-209c5fe4d96b" data-name="react-path-39" class="a9361e69-4f12-4392-af5d-84de2a51d125" x="0.3483" y="-6.4361" width="107.7605" height="114.2915"/>
        </g>
      </g>
    </mask>
    <mask id="be43fa6a-d49a-4167-9b2f-a992b175adc5" x="0" y="0" width="107.7605" height="114.2262" maskUnits="userSpaceOnUse">
      <g transform="translate(0 6.2837)">
        <g id="b931ebf0-2e1b-4482-ab9b-f1766944c044" data-name="react-mask-36">
          <path id="aa1651ba-18a4-4136-b0b9-f1384920cabb" data-name="react-path-38" class="b5c760f4-1b80-42c7-8ea6-8f5ff7831761" d="M73.4744,9.8588a34.7148,34.7148,0,0,0-3.7066-3.1079c-.2807-.216-.5659-.4267-.84-.6509a4.4641,4.4641,0,0,1-.7779-.6771c-.1841-.4052-.0774-.09-.0521-.5733.0321-.6115,1.279-2.3386.3486-2.7346-.4093-.1742-1.1395.2893-1.5321.4424a24.2579,24.2579,0,0,1-2.3393.7756c.38-.7579,1.1056-2.275-.2575-1.869-1.0619.3164-2.0515,1.13-3.1186,1.5124.3531-.5788,1.7651-2.3722.4892-2.4724a9.669,9.669,0,0,0-1.98.8724,22.7675,22.7675,0,0,1-3.9324,1.0257c-4.5708.8238-9.9159.5889-14.1449,2.67a20.0081,20.0081,0,0,0-8.363,7.2633,23.8549,23.8549,0,0,0-2.8742,9.9,49.6972,49.6972,0,0,0-.1711,7.8039c.0426.8449.1376,4.7394,1.365,3.56.6115-.5876.607-2.9606.761-3.7638a37.6853,37.6853,0,0,1,1.1126-4.75c.9005-2.7262,1.9629-5.63,4.2063-7.5077,1.44-1.2048,2.4507-2.8332,3.8284-4.0486.6189-.5459.1466-.4891,1.1416-.4174.6685.048,1.34.0664,2.01.0839,1.55.04,3.1014.03,4.6513.0355,3.1213.0112,6.228.0553,9.3463-.1081,1.3858-.0726,2.7754-.1119,4.1574-.24.7721-.0716,2.142-.5664,2.7776-.1883.5816.346,1.1856,1.4756,1.6032,1.9382A24.5566,24.5566,0,0,0,70.5,17.4572a12.1486,12.1486,0,0,1,4.3513,7.1382c.7279,2.91.5238,5.61,1.4249,8.4745.1585.5036.5778,1.3716,1.0947.5935a5.6883,5.6883,0,0,0,.0711-1.3958c0-1.8449.4672-3.2291.4613-5.086C77.88,21.5356,77.6977,14.1735,73.4744,9.8588Z"/>
        </g>
      </g>
    </mask>
  </defs>
  <g>
    <g class="f8683b42-19fc-4b7c-85da-a4a0ba6be505">
      <g id="a593ba8a-a083-4806-a08b-4fc593510095" data-name="ColorPaletteBlue01">
        <rect id="fd29dca0-43c1-45d8-9892-480254753955" data-name="ðŸ–Color" class="a1cd79f6-6181-45d6-935c-b764b67c688f" x="5.1975" y="15.9954" width="97.9641" height="97.9641"/>
      </g>
    </g>
    <g class="b314e7d0-0a15-496e-963d-e1c1825e6e4d">
      <g id="baf13637-3a03-46c4-84ee-5207035a2e5c" data-name="avatarmaker">
        <g id="b171d226-feaf-4bb4-9ea7-41e02f93a4a9" data-name="Body">
          <path id="a837ab88-6a3b-4eb6-97a9-d7916549e4f8" data-name="path-5" class="b9d1e0d3-9ead-440b-be44-c3153bcc0b75" d="M63.9379,67.39v7.5061h1.7338c17.7974-.1072,31.0172,15.624,29.397,33.0466H13.41C11.6589,89.8265,26.14,73.8256,44.541,74.8959V67.39A22.8815,22.8815,0,0,1,31.53,49.1318a4.9084,4.9084,0,0,1-4.2305-4.85c.1134-3.7814-1.1242-9.7716,4.071-10.642V31.1223h0A22.8692,22.8692,0,0,1,54.24,8.2531h0c13.6816-.0754,24.0167,11.931,22.8691,25.387,5.1973.8724,3.9567,6.8621,4.0708,10.6421a4.908,4.908,0,0,1-4.23,4.85A22.8818,22.8818,0,0,1,63.9379,67.39Z" transform="translate(0 6.2837)"/>
          <g class="a87966bb-e20f-4fad-9510-76f53b192578">
            <g id="b6e19fb8-39fd-42b3-a00c-bde074c3ffd0" data-name="Skin/ðŸ‘¶ðŸ½-03-Brown">
              <g id="b03e9695-42c0-427d-b47b-27dfb08cb581" data-name="Color">
                <rect class="b9387723-bbe7-42f7-8d98-5ed4022eddcb" x="0.2395" y="14.6075" width="107.7605" height="99.6186"/>
              </g>
            </g>
          </g>
          <g class="a19f146a-8820-4088-894e-0cfd1033d5d7">
            <path id="a41cc476-38a9-4399-800c-41501da71e0f" data-name="Neck-Shadow" class="b3543232-35be-4d94-9546-26481d11ae96" d="M77.1086,40.4974c1.6948,15.3108-4.2411,30.93-21.4522,32.2188C36.6817,73.2831,29.4555,57.1408,31.37,40.4974,27.5911,79.0084,81.0605,78.904,77.1086,40.4974Z" transform="translate(0 6.2837)"/>
          </g>
        </g>
        <g id="aab3ec6b-7a7f-418c-9bca-d100734f1354" data-name="Clothing/Blazer-+-Sweater">
          <g id="ea5ae8c1-c133-4532-bae2-b82df29b264b" data-name="Clothes">
            <path id="fe241cae-dcde-43ac-b010-2d85c8e7294c" data-name="react-path-70" class="bef4ec7c-73b5-41a4-b1b8-a87d8d42d364" d="M43.2941,74.8959h-.4868C25.02,74.788,11.7958,90.5181,13.41,107.9425H95.0687c1.6149-17.4248-11.611-33.1548-29.397-33.0466h-.4869C66.5675,89.9,41.9081,89.8928,43.2941,74.8959Z" transform="translate(0 6.2837)"/>
          </g>
          <g class="ab4e7a65-6fbc-4cf2-a02a-a9daf8df8db9">
            <g id="b1393596-d830-4a0e-971a-abe20c678bd5" data-name="Color/Palette/Black">
              <rect id="add78c43-0032-4f74-8315-83540f4774bb" data-name="ðŸ–Color" class="bccd5318-4cec-4116-bbdb-50b03f05dd98" x="0.2395" y="69.2062" width="107.7605" height="45.02"/>
            </g>
          </g>
          <g id="f234d049-035b-4698-9f72-4fa0c843dfb8" data-name="Blazer">
            <path id="acbef8c8-478c-433f-b5a6-736e4ec0c688" data-name="Saco" class="aff709f7-cbe0-4349-acd4-aac2901927c1" d="M41.487,74.93C24.33,75.5637,11.8479,90.9814,13.41,107.9425H41.7225C38.9194,98.5255,38.8322,84.4842,41.487,74.93Zm25.6776,33.013H95.0687c1.5468-16.8151-10.7077-32.1342-27.6631-32.992C70.055,84.5024,69.9657,98.5316,67.1646,107.9425Z" transform="translate(0 6.2837)"/>
            <path id="ffe5378c-0b4e-4c54-ad9e-c5f932df6487" data-name="Pocket-hanky" class="bef4ec7c-73b5-41a4-b1b8-a87d8d42d364" d="M74.23,98.059l3.9-2.9254h0c1.4342-1.269,3.5742,1.4865,4.6714,2.109Z" transform="translate(0 6.2837)"/>
            <path id="a0519d26-fa2e-48a3-874a-89c329bb2ae2" data-name="Wing" class="a0dd5929-5156-4108-801e-4a4343ef980d" d="M41.5749,74.4714q-2.4492,11.8372,2.0409,33.4711H37.0849L31.37,93.2478l2.4491-3.6736L31.37,87.1251,39.1258,74.88A8.7523,8.7523,0,0,1,41.5749,74.4714Z" transform="translate(0 6.2837)"/>
            <path id="f30fad78-cc9e-47f3-9f00-1391874802dc" data-name="Wing" class="a0dd5929-5156-4108-801e-4a4343ef980d" d="M66.8823,74.4714q2.449,11.8372-2.0409,33.4711h6.5309l5.7146-14.6947-2.4491-3.6736,2.4491-2.4491L69.3314,74.88A8.7529,8.7529,0,0,0,66.8823,74.4714Z" transform="translate(0 6.2837)"/>
          </g>
          <path id="ae68e2a8-e799-4269-9ca6-60d91909373d" data-name="Collar" class="f4ba5c86-17e7-44cd-b684-1c4896a6ea5c" d="M63.9379,71.747c5.9956,3.7577,5.8636,11.4606-.1959,15.11l-2.4249-1.91-1.8692.1352.4082-1.2862-.0318-.025C65.0863,81.3935,63.83,76.2031,63.9379,71.747Zm-19.3969,0c-5.9956,3.7577-5.8635,11.4606.1959,15.11l2.4249-1.91,1.8692.1352-.4081-1.2862.0317-.025C43.3926,81.3935,44.6491,76.2031,44.541,71.747Z" transform="translate(0 6.2837)"/>
        </g>
        <g id="e2e3d521-2b1b-40b1-9177-1bb30a0723ba" data-name="Face">
          <g id="afe1bdb9-73e6-47ae-a9ac-92e272e8397a" data-name="Mouth/Smile">
            <g id="fdd28833-72d1-41ab-92ea-cd72f78a488a" data-name="Mouth">
              <path id="e46f8df2-3265-456a-9487-ff7f4f04220e" data-name="react-path-94" class="a4afb587-7eab-47e0-9d36-30ea2fa270cf" d="M46.5212,54.4519c.9273,9.0355,14.5341,9.0039,15.4187-.0364a.855.855,0,0,0-.7547-.8322C56.7367,53.9449,46.0731,52.67,46.5212,54.4519Z" transform="translate(0 6.2837)"/>
            </g>
            <g class="aec8ad4e-985c-4332-9417-aa9b8635f774">
              <path id="a9973872-1c9c-4308-a468-67e54ac68441" data-name="Teeth" class="b5c760f4-1b80-42c7-8ea6-8f5ff7831761" d="M50.174,49.0334h8.61c2.3895.0014,2.067,2.7915,2.0408,4.4248a2.0407,2.0407,0,0,1-2.0408,2.0408h-8.61c-2.39-.0014-2.067-2.7915-2.0408-4.4248A2.0406,2.0406,0,0,1,50.174,49.0334Z" transform="translate(0 6.2837)"/>
            </g>
            <g class="b630d3d8-b201-40ee-8bf7-d004604c8e65">
              <g id="ac536c96-4edb-4d5d-b4fa-c1880b1b53f9" data-name="Tongue">
                <g>
                  <path class="bd6104f8-1178-4673-8e5f-d9c9639777f9" d="M52.1877,58.057c5.9021.1008,5.9012,8.88,0,8.98C46.2855,66.9362,46.2865,58.1569,52.1877,58.057Z" transform="translate(0 6.2837)"/>
                  <path class="bd6104f8-1178-4673-8e5f-d9c9639777f9" d="M56.27,58.057c5.9021.1008,5.9012,8.88,0,8.98C50.3674,66.9362,50.3683,58.1569,56.27,58.057Z" transform="translate(0 6.2837)"/>
                </g>
              </g>
            </g>
          </g>
          <g id="bbf5413a-93bd-4731-b6be-b8a563acd23a" data-name="Nose/Default">
            <path id="ababb249-8dbf-46d2-9a4d-e63fffc18a17" data-name="Nose" class="bdfddcd2-6a39-4f9d-9671-a644031c0f2c" d="M49.33,46.6278c0,1.8035,2.193,3.2655,4.8982,3.2655s4.8982-1.462,4.8982-3.2655" transform="translate(0 6.2837)"/>
          </g>
          <g id="a83e816d-071a-4d18-a345-71082b667be1" data-name="Eyes/Default-ðŸ˜€">
            <path id="e58c41d9-58d5-4a6f-813b-0a606ce0510a" data-name="Eye" class="b7a0dc08-b2b5-43aa-9679-caf53555da4a" d="M43.6158,36.8314c3.1776-.0464,3.1776,4.945,0,4.8982C40.4382,41.776,40.4382,36.7846,43.6158,36.8314Z" transform="translate(0 6.2837)"/>
            <path id="aecb712a-80b9-43a2-9e3b-59a39d6f1d01" data-name="Eye" class="b7a0dc08-b2b5-43aa-9679-caf53555da4a" d="M64.8414,36.8314c3.1776-.0464,3.1776,4.945,0,4.8982C61.6638,41.776,61.6637,36.7846,64.8414,36.8314Z" transform="translate(0 6.2837)"/>
          </g>
          <g id="a87562b8-5782-4037-bb7b-0a96847daaba" data-name="Eyebrow/Natural/Raised-Excited-Natural">
            <path id="f01680ca-e6b8-48a0-b1fa-d11da6ec4861" data-name="Eye-Browse-Reddit" class="b7a0dc08-b2b5-43aa-9679-caf53555da4a" d="M40.6631,27.6793l.3719-.1644a10.3833,10.3833,0,0,1,7.3658.4585c.2315.1112.0733.4706-.1639.4523C41.872,27.8392,38.18,32.0974,36.458,34.3339,35.5159,32.1626,38.2741,28.6253,40.6631,27.6793Z" transform="translate(0 6.2837)"/>
            <path id="f48ef1a2-31a8-4cca-a97d-f5413a8bfe81" data-name="Eye-Browse-Reddit" class="b7a0dc08-b2b5-43aa-9679-caf53555da4a" d="M67.794,27.6793l-.3718-.1644a10.3836,10.3836,0,0,0-7.3659.4585c-.2314.1112-.0732.4706.164.4523,6.3649-.5865,10.0574,3.6717,11.7789,5.9082C72.9412,32.1626,70.1831,28.6253,67.794,27.6793Z" transform="translate(0 6.2837)"/>
          </g>
        </g>
        <g id="b95d2ba7-9c59-482e-b526-449f6e9d7c41" data-name="Top">
          <g class="a4074706-cdd8-4a49-b7f2-791e7b2ea746">
            <g id="aa60dcff-de48-487b-9b94-5f10d858140b" data-name="Top/Short-Hair/Short-Flat">
              <g>
                <g id="acfcb518-8e1f-4590-9d83-f7f7cdb63a02" data-name="Short-Hair">
                  <path id="b9356a84-22ce-4ab9-ad14-60d1df300091" data-name="react-path-38" class="ad36e873-1f30-4c59-b82b-ba2993e523fe" d="M73.4744,9.8588c-1.6083-1.6942-3.6115-2.86-5.3249-4.4358-.184-.4053-.0773-.09-.052-.5734C70.1.147,67.12,2.8227,64.5747,3.333c1.9128-3.7433-1.9114-.9243-3.3761-.3566,1.7836-2.4681,1.0923-3.15-1.4906-1.6C53.9957,3.5376,47.1671,2.4047,41.6307,5.072,31.6439,9.3513,29.5182,20.2025,30.2229,30.04c.0421.8446.1371,4.7391,1.3645,3.56.6115-.5876.607-2.9606.761-3.7638a37.6853,37.6853,0,0,1,1.1126-4.75c.9005-2.7262,1.9629-5.63,4.2063-7.5077,1.44-1.2048,2.4507-2.8332,3.8284-4.0486.6189-.5459.1466-.4891,1.1416-.4174q7.9977.286,16.0073.0114c1.3858-.0727,2.7754-.112,4.1574-.24.7721-.0716,2.142-.5664,2.7776-.1883.5816.346,1.1856,1.4756,1.6032,1.9382,8.8448,6.9585,7.0325,8.3592,9.0928,18.4377.5935,1.73,1.3872.69,1.1661-.8025C78.1067,24.9976,78.7474,15.7008,73.4744,9.8588Z" transform="translate(0 6.2837)"/>
                </g>
                <g class="ae398444-1bca-41b3-bd3e-51eeff367bcf">
                  <g id="aecc3961-c3ca-4cde-851f-d2d125729e80" data-name="Skin/ðŸ‘¶ðŸ½-03-Brown">
                    <g id="f82c8f47-81ec-4569-9b11-571226513995" data-name="Color">
                      <rect class="a319b5d9-7580-4325-95c6-da5620755243" width="107.7605" height="114.2262"/>
                    </g>
                  </g>
                </g>
              </g>
            </g>
          </g>
        </g>
      </g>
    </g>
  </g>
</svg>
