<svg id="a358f0e2-f3d3-4645-bdb4-c2f052306c66" data-name="Layer 1" xmlns="http://www.w3.org/2000/svg" xmlns:xlink="http://www.w3.org/1999/xlink" width="108" height="114.2262" viewBox="0 0 108 114.2262">
  <defs>
    <style>
      .b7c2f0d2-571d-44d9-98aa-25d45e48a357, .bb0daa25-9fe6-4128-8add-9140eabcc8af {
        fill: #fff;
      }

      .a30305e4-a629-4f35-af5c-34e3b36a42fc, .a969f08d-a59f-4f76-a2f9-dfc103df0d3a, .ae46ce8d-00a5-4c89-984c-8a843bdbc5ad, .b95de6d0-8fca-4393-93f8-f33427148674, .bb0daa25-9fe6-4128-8add-9140eabcc8af, .e10c767d-58fe-4f7b-866b-e0393565e8e8, .e116a72a-74e7-4f5a-a096-cdb8ef9fb19b, .e4c0c470-58d5-4892-88da-5c8263be79d8, .efc7c13a-5b9a-4657-bba3-b7d8da93f64d, .f50790b4-fcbf-4034-9071-1f39e6e7fc1e, .f766bf91-15fd-4880-986b-9b35f896b1d2, .fcf353d4-5b8e-4124-805c-102c822807dc {
        fill-rule: evenodd;
      }

      .eaf5174c-8e45-4494-aa84-f8b3e6b5ba6b {
        mask: url(#bcf40e86-c75f-4e15-9a14-d6af60d4fb61);
      }

      .b4395dc4-1052-47b8-9117-b88eaf37f3e4 {
        fill: #332054;
      }

      .bd369898-7343-446d-a243-3e2aeb1b7bd9 {
        mask: url(#a3108eeb-6f35-4310-952f-41cad671168f);
      }

      .a30305e4-a629-4f35-af5c-34e3b36a42fc {
        fill: #d0c6ac;
      }

      .ea8dab16-4d30-475f-be72-cc4a074410d3 {
        mask: url(#a8d58350-12d5-4f85-a92e-99e13fb94523);
      }

      .e9d53160-812f-4835-804b-0cac926d30c7 {
        fill: #edb989;
      }

      .a0ce7da1-3603-40c8-9ca0-11af10a4953c {
        mask: url(#fab3ce08-8471-44ab-a732-fb504691bc96);
      }

      .e10c767d-58fe-4f7b-866b-e0393565e8e8, .e116a72a-74e7-4f5a-a096-cdb8ef9fb19b, .e4c0c470-58d5-4892-88da-5c8263be79d8, .efc7c13a-5b9a-4657-bba3-b7d8da93f64d {
        fill: #010101;
      }

      .e10c767d-58fe-4f7b-866b-e0393565e8e8 {
        fill-opacity: 0.1;
      }

      .a969f08d-a59f-4f76-a2f9-dfc103df0d3a {
        fill: #e6e6e5;
      }

      .ab8f2e3d-f326-47e1-a64a-6d309daea41b {
        mask: url(#a97dd0bf-4ca4-4806-b05e-db1aff2c2bd9);
      }

      .bb1c47f7-9a9b-46c0-a291-9c2333442fa6 {
        fill: #272f34;
      }

      .b95de6d0-8fca-4393-93f8-f33427148674 {
        fill: #3b4d5a;
      }

      .f50790b4-fcbf-4034-9071-1f39e6e7fc1e {
        fill: #304452;
      }

      .ae46ce8d-00a5-4c89-984c-8a843bdbc5ad {
        fill: #f3f3f3;
      }

      .e4c0c470-58d5-4892-88da-5c8263be79d8 {
        fill-opacity: 0.7;
      }

      .ae3f1c87-66f9-44ff-934a-2d6580f2e137 {
        mask: url(#afab0696-5b87-40f4-8db7-2bbcf203480e);
      }

      .f8badb1b-90e4-40b6-acbb-92e544324b59 {
        mask: url(#a3ff52d3-5d06-48c7-8b49-ac8c50880122);
      }

      .fcf353d4-5b8e-4124-805c-102c822807dc {
        fill: #f0526e;
      }

      .efc7c13a-5b9a-4657-bba3-b7d8da93f64d {
        fill-opacity: 0.16;
      }

      .e116a72a-74e7-4f5a-a096-cdb8ef9fb19b {
        fill-opacity: 0.6;
      }

      .aa3daad7-50e1-4fd3-a7b6-cd2d87f0027c {
        mask: url(#a1f48ca7-39cb-4c12-8e47-a4b0c61aa849);
      }

      .f766bf91-15fd-4880-986b-9b35f896b1d2 {
        fill: #1f3141;
      }

      .bd33b559-8996-430f-9fd7-c60c612aad96 {
        mask: url(#a8d6734e-dd53-4cca-9398-a96feb5c3f8f);
      }

      .f36fa363-9cf7-4be9-8472-f4ba0441f443 {
        fill: #2d1c19;
      }
    </style>
    <mask id="bcf40e86-c75f-4e15-9a14-d6af60d4fb61" x="5.3765" y="15.9954" width="97.9641" height="97.9641" maskUnits="userSpaceOnUse">
      <g transform="translate(0.179 6.2837)">
        <g id="b5e59c41-9bfb-4211-a5d9-c7c6f976f467" data-name="mask-2">
          <circle id="ae5f16e8-067e-47b3-8125-93df74cc8087" data-name="path-1" class="b7c2f0d2-571d-44d9-98aa-25d45e48a357" cx="54.1796" cy="58.6937" r="48.9821"/>
        </g>
      </g>
    </mask>
    <mask id="a3108eeb-6f35-4310-952f-41cad671168f" x="0.3483" y="-0.1524" width="107.7605" height="114.3786" maskUnits="userSpaceOnUse">
      <g transform="translate(0.179 6.2837)">
        <g id="f0918463-2402-4be2-8963-da5bb905e7bc" data-name="mask-4">
          <path id="acd59a95-393a-47e0-971a-15ea4a1d8a63" data-name="path-3" class="bb0daa25-9fe6-4128-8add-9140eabcc8af" d="M5.0675,58.8733a48.9821,48.9821,0,0,0,97.9642,0H107.93V-6.4361H.1693V58.8733Z"/>
        </g>
      </g>
    </mask>
    <mask id="a8d58350-12d5-4f85-a92e-99e13fb94523" x="0.2395" y="14.5422" width="107.7605" height="99.6839" maskUnits="userSpaceOnUse">
      <g transform="translate(0.179 6.2837)">
        <g id="eafe1df0-d4d7-4e96-bd07-3fc7ad31a0ee" data-name="mask-6">
          <path id="a3a616d1-f482-416b-af51-d6aac26f16e6" data-name="path-5" class="bb0daa25-9fe6-4128-8add-9140eabcc8af" d="M63.846,67.2864v7.5061h1.6328A29.3892,29.3892,0,0,1,94.868,104.1817v3.6737H13.2312v-3.6737A29.3892,29.3892,0,0,1,42.6205,74.7925h1.6327V67.2864a22.8747,22.8747,0,0,1-12.9373-18.258,4.8992,4.8992,0,0,1-4.2064-4.85V38.4641a4.9,4.9,0,0,1,4.0818-4.83V31.1168h0A22.8583,22.8583,0,0,1,54.05,8.2585h0A22.8583,22.8583,0,0,1,76.9079,31.1168v2.5169a4.9,4.9,0,0,1,4.0818,4.83v5.7146a4.8992,4.8992,0,0,1-4.2064,4.85A22.8747,22.8747,0,0,1,63.846,67.2864Z"/>
        </g>
      </g>
    </mask>
    <mask id="fab3ce08-8471-44ab-a732-fb504691bc96" x="13.4102" y="14.5422" width="81.6368" height="99.5969" maskUnits="userSpaceOnUse">
      <g transform="translate(0.179 6.2837)">
        <g id="e48e3549-7011-482a-984d-26a642aff429" data-name="mask-6">
          <path id="b4abbbf3-369a-4dab-a2a2-abbf7de85102" data-name="path-5" class="bb0daa25-9fe6-4128-8add-9140eabcc8af" d="M63.846,67.2864v7.5061h1.6328A29.3892,29.3892,0,0,1,94.868,104.1817v3.6737H13.2312v-3.6737A29.3892,29.3892,0,0,1,42.6205,74.7925h1.6327V67.2864a22.8747,22.8747,0,0,1-12.9373-18.258,4.8992,4.8992,0,0,1-4.2064-4.85V38.4641a4.9,4.9,0,0,1,4.0818-4.83V31.1168h0A22.8583,22.8583,0,0,1,54.05,8.2585h0A22.8583,22.8583,0,0,1,76.9079,31.1168v2.5169a4.9,4.9,0,0,1,4.0818,4.83v5.7146a4.8992,4.8992,0,0,1-4.2064,4.85A22.8747,22.8747,0,0,1,63.846,67.2864Z"/>
        </g>
      </g>
    </mask>
    <mask id="a97dd0bf-4ca4-4806-b05e-db1aff2c2bd9" x="0.2395" y="69.2062" width="107.7605" height="45.02" maskUnits="userSpaceOnUse">
      <g transform="translate(0.179 6.2837)">
        <g id="aa86eb1f-f647-4bdb-a9b3-b6e5e0d01cc3" data-name="react-mask-71">
          <path id="a23be99e-49c7-44ae-90ff-736096035afd" data-name="react-path-70" class="bb0daa25-9fe6-4128-8add-9140eabcc8af" d="M43.1072,74.8136h-.4867a29.3892,29.3892,0,0,0-29.3893,29.3892v3.6526H94.868v-3.6526A29.3892,29.3892,0,0,0,65.4788,74.8136H64.992a9.5474,9.5474,0,0,1,.0786,1.2246c0,5.6358-4.9343,10.2046-11.021,10.2046s-11.021-4.5688-11.021-10.2046A9.5474,9.5474,0,0,1,43.1072,74.8136Z"/>
        </g>
      </g>
    </mask>
    <mask id="afab0696-5b87-40f4-8db7-2bbcf203480e" x="46.518" y="55.3171" width="15.4241" height="12.2891" maskUnits="userSpaceOnUse">
      <g transform="translate(0.179 6.2837)">
        <g id="ad5277b3-035c-4d06-b088-5f0742332c42" data-name="react-mask-95">
          <path id="a5aa7f6c-4129-4166-a81b-6b94a20271ce" data-name="react-path-94" class="bb0daa25-9fe6-4128-8add-9140eabcc8af" d="M46.3422,54.4356A7.7563,7.7563,0,0,0,61.7609,54.4a.855.855,0,0,0-.7547-.8328h-13.86A.87.87,0,0,0,46.3422,54.4356Z"/>
        </g>
      </g>
    </mask>
    <mask id="a3ff52d3-5d06-48c7-8b49-ac8c50880122" x="46.518" y="59.8506" width="15.4241" height="13.4701" maskUnits="userSpaceOnUse">
      <g transform="translate(0.179 6.2837)">
        <g id="a68f9723-7be1-4c4d-a644-f3d011dca284" data-name="react-mask-95">
          <path id="a9682639-f302-4b97-8b9b-3224ce7b9647" data-name="react-path-94" class="bb0daa25-9fe6-4128-8add-9140eabcc8af" d="M46.3422,54.4356A7.7563,7.7563,0,0,0,61.7609,54.4a.855.855,0,0,0-.7547-.8328h-13.86A.87.87,0,0,0,46.3422,54.4356Z"/>
        </g>
      </g>
    </mask>
    <mask id="a1f48ca7-39cb-4c12-8e47-a4b0c61aa849" x="0.3483" y="-0.1524" width="107.7605" height="114.2915" maskUnits="userSpaceOnUse">
      <g transform="translate(0.179 6.2837)">
        <g id="e813d4da-9b37-4c98-892b-4497039ab89b" data-name="react-mask-37">
          <rect id="f062bfeb-9961-410b-b2c4-1439155eae40" data-name="react-path-39" class="b7c2f0d2-571d-44d9-98aa-25d45e48a357" x="0.1693" y="-6.4361" width="107.7605" height="114.2915"/>
        </g>
      </g>
    </mask>
    <mask id="a8d6734e-dd53-4cca-9398-a96feb5c3f8f" x="0" y="0" width="107.7605" height="114.2262" maskUnits="userSpaceOnUse">
      <g transform="translate(0.179 6.2837)">
        <g id="b2ea5e0f-b2dd-463a-bc06-ffa20888c1bc" data-name="react-mask-36">
          <path id="f82a03b9-280a-41fc-9fea-7de1dee57222" data-name="react-path-38" class="bb0daa25-9fe6-4128-8add-9140eabcc8af" d="M73.2955,9.8588a34.7346,34.7346,0,0,0-3.7066-3.1079c-.2807-.216-.5659-.4267-.84-.6509a4.4641,4.4641,0,0,1-.7779-.6771c-.1841-.4052-.0774-.09-.052-.5733.0321-.6115,1.279-2.3386.3485-2.7346-.4093-.1742-1.1394.2893-1.5321.4424a24.2579,24.2579,0,0,1-2.3393.7756c.38-.7579,1.1056-2.275-.2575-1.869-1.0619.3164-2.0514,1.13-3.1185,1.5124.353-.5788,1.765-2.3722.4891-2.4724a9.669,9.669,0,0,0-1.98.8724,22.7675,22.7675,0,0,1-3.9324,1.0257c-4.5708.8238-9.9159.5889-14.1449,2.67a20.0087,20.0087,0,0,0-8.363,7.2633,23.8549,23.8549,0,0,0-2.8742,9.9,49.7093,49.7093,0,0,0-.1711,7.8039c.0426.8449.1377,4.7394,1.3651,3.56.6115-.5876.607-2.9606.761-3.7638a37.685,37.685,0,0,1,1.1125-4.75c.9006-2.7262,1.9629-5.63,4.2063-7.5077,1.44-1.2048,2.4507-2.8332,3.8284-4.0486.6189-.5459.1467-.4891,1.1417-.4174.6684.048,1.34.0664,2.01.0839,1.5494.04,3.1013.03,4.6512.0355,3.1213.0112,6.228.0553,9.3463-.1081,1.3858-.0726,2.7754-.1119,4.1574-.24.7721-.0716,2.142-.5664,2.7776-.1883.5816.346,1.1856,1.4756,1.6032,1.9382a24.5566,24.5566,0,0,0,3.317,2.8248,12.1486,12.1486,0,0,1,4.3513,7.1382c.728,2.91.5238,5.61,1.4249,8.4745.1585.5036.5778,1.3716,1.0947.5935a5.6883,5.6883,0,0,0,.0711-1.3958c0-1.8449.4672-3.2291.4614-5.086C77.7012,21.5356,77.5187,14.1735,73.2955,9.8588Z"/>
        </g>
      </g>
    </mask>
  </defs>
  <g class="eaf5174c-8e45-4494-aa84-f8b3e6b5ba6b">
    <g id="b442c06e-28eb-4083-9c55-068d31fa6dcf" data-name="ColorPaletteBlue01">
      <rect id="af51c77c-f038-45e9-b061-46ed064d0f67" data-name="ðŸ–Color" class="b4395dc4-1052-47b8-9117-b88eaf37f3e4" x="5.3765" y="15.9954" width="97.9641" height="97.9641"/>
    </g>
  </g>
  <g class="bd369898-7343-446d-a243-3e2aeb1b7bd9">
    <g id="a2c617f0-721d-4550-a94c-a0f4b0abc89a" data-name="avatarmaker">
      <g id="f315aad8-849c-4f48-8ca4-a04f41ae0751" data-name="Body">
        <path id="fda0fdec-ed48-4f6d-b4c5-727e4421bee2" data-name="path-5" class="a30305e4-a629-4f35-af5c-34e3b36a42fc" d="M63.7589,67.39v7.5061h1.7338C83.29,74.7887,96.51,90.52,94.89,107.9425H13.2312C11.48,89.8265,25.9612,73.8256,44.362,74.8959V67.39a22.8817,22.8817,0,0,1-13.0112-18.258,4.9084,4.9084,0,0,1-4.23-4.85c.1133-3.7814-1.1242-9.7716,4.0709-10.642V31.1223h0A22.8692,22.8692,0,0,1,54.0605,8.2531h0C67.7421,8.1777,78.0772,20.1841,76.93,33.64c5.1973.8724,3.9566,6.8621,4.0708,10.6421a4.9082,4.9082,0,0,1-4.23,4.85A22.8816,22.8816,0,0,1,63.7589,67.39Z" transform="translate(0.179 6.2837)"/>
        <g class="ea8dab16-4d30-475f-be72-cc4a074410d3">
          <g id="aa5bfb45-42a3-4982-af26-e996d9c3c046" data-name="Skin/ðŸ‘¶ðŸ½-03-Brown">
            <g id="a77eec1f-6914-4a02-bc84-353cc2b497e2" data-name="Color">
              <rect class="e9d53160-812f-4835-804b-0cac926d30c7" x="0.2395" y="14.6075" width="107.7605" height="99.6186"/>
            </g>
          </g>
        </g>
        <g class="a0ce7da1-3603-40c8-9ca0-11af10a4953c">
          <path id="eea94340-f4c6-4bda-a29c-f7f03d7d22e5" data-name="Neck-Shadow" class="e10c767d-58fe-4f7b-866b-e0393565e8e8" d="M76.93,40.4974c1.6947,15.3108-4.2412,30.93-21.4523,32.2188-18.9747.5669-26.2008-15.5754-24.2861-32.2188C27.4121,79.0084,80.8816,78.904,76.93,40.4974Z" transform="translate(0.179 6.2837)"/>
        </g>
      </g>
      <g id="a1e7b031-a201-4220-bed0-76f61a8084c5" data-name="Clothing/Blazer-+-Sweater">
        <g id="ac1de12f-fc69-460f-b695-dbddeebfb0ae" data-name="Clothes">
          <path id="e1e57ede-7a39-4e1e-ac2f-efab7b915bcf" data-name="react-path-70" class="a969f08d-a59f-4f76-a2f9-dfc103df0d3a" d="M43.1151,74.8959h-.4868c-17.7869-.1079-31.0115,15.6222-29.3971,33.0466H94.89c1.6148-17.4248-11.6111-33.1548-29.3971-33.0466h-.4869C66.3885,89.9,41.7291,89.8928,43.1151,74.8959Z" transform="translate(0.179 6.2837)"/>
        </g>
        <g class="ab8f2e3d-f326-47e1-a64a-6d309daea41b">
          <g id="ebc67a08-f96b-44eb-89b4-ade4cf76e38e" data-name="Color/Palette/Black">
            <rect id="a6149f56-d733-4406-b1d0-1b5cb3a246f7" data-name="ðŸ–Color" class="bb1c47f7-9a9b-46c0-a291-9c2333442fa6" x="0.2395" y="69.2062" width="107.7605" height="45.02"/>
          </g>
        </g>
        <g id="f7c2f15e-eade-461e-a949-2c6dafc4e6e5" data-name="Blazer">
          <path id="a4874c5d-1ba1-460a-970c-555e2be486a2" data-name="Saco" class="b95de6d0-8fca-4393-93f8-f33427148674" d="M41.3081,74.93c-17.157.6342-29.6392,16.0519-28.0769,33.013H41.5435C38.74,98.5255,38.6532,84.4842,41.3081,74.93Zm25.6775,33.013H94.89c1.5467-16.8151-10.7078-32.1342-27.6632-32.992C69.876,84.5024,69.7868,98.5316,66.9856,107.9425Z" transform="translate(0.179 6.2837)"/>
          <path id="bcf62a94-1778-4928-a1a4-92a0fa93279d" data-name="Pocket-hanky" class="a969f08d-a59f-4f76-a2f9-dfc103df0d3a" d="M74.0506,98.059l3.9006-2.9254h0c1.4341-1.269,3.5742,1.4865,4.6713,2.109Z" transform="translate(0.179 6.2837)"/>
          <path id="be8d6c03-be7c-4550-967c-fa18dd427a23" data-name="Wing" class="f50790b4-fcbf-4034-9071-1f39e6e7fc1e" d="M41.3959,74.4714q-2.449,11.8372,2.0409,33.4711H36.9059L31.1913,93.2478,33.64,89.5742l-2.4491-2.4491L38.9468,74.88A8.7529,8.7529,0,0,1,41.3959,74.4714Z" transform="translate(0.179 6.2837)"/>
          <path id="b7cf60d4-364d-4347-bf8e-ea2e6c3ddddc" data-name="Wing" class="f50790b4-fcbf-4034-9071-1f39e6e7fc1e" d="M66.7033,74.4714q2.449,11.8372-2.0409,33.4711h6.5309l5.7146-14.6947-2.4491-3.6736,2.4491-2.4491L69.1524,74.88A8.7529,8.7529,0,0,0,66.7033,74.4714Z" transform="translate(0.179 6.2837)"/>
        </g>
        <path id="fd578c9f-bb5b-4eb2-9c79-9724c49e5673" data-name="Collar" class="ae46ce8d-00a5-4c89-984c-8a843bdbc5ad" d="M63.7589,71.747c5.9956,3.7577,5.8636,11.4606-.1958,15.11l-2.425-1.91-1.8692.1352.4082-1.2862-.0317-.025C64.9073,81.3935,63.6509,76.2031,63.7589,71.747Zm-19.3969,0c-5.9956,3.7577-5.8635,11.4606.1959,15.11l2.425-1.91,1.8692.1352-.4082-1.2862.0317-.025C43.2137,81.3935,44.47,76.2031,44.362,71.747Z" transform="translate(0.179 6.2837)"/>
      </g>
      <g id="b9ad8191-c385-4721-bfb0-d325ac586d7d" data-name="Face">
        <g id="b3df653d-c6af-4e31-942a-89aadba4c849" data-name="Mouth/Smile">
          <g id="b59c15a6-0383-4749-9076-060b16e3668b" data-name="Mouth">
            <path id="bf24bda3-8f1b-46fa-b703-151182cdbd05" data-name="react-path-94" class="e4c0c470-58d5-4892-88da-5c8263be79d8" d="M46.3422,54.4519c.9273,9.0355,14.5341,9.0039,15.4187-.0364a.8549.8549,0,0,0-.7547-.8322C56.5577,53.9449,45.8941,52.67,46.3422,54.4519Z" transform="translate(0.179 6.2837)"/>
          </g>
          <g class="ae3f1c87-66f9-44ff-934a-2d6580f2e137">
            <path id="f1bfe301-85ce-46b5-8989-208f6a3a9578" data-name="Teeth" class="bb0daa25-9fe6-4128-8add-9140eabcc8af" d="M49.995,49.0334h8.61c2.39.0014,2.067,2.7915,2.0408,4.4248a2.0406,2.0406,0,0,1-2.0408,2.0408h-8.61c-2.3895-.0014-2.067-2.7915-2.0408-4.4248A2.0407,2.0407,0,0,1,49.995,49.0334Z" transform="translate(0.179 6.2837)"/>
          </g>
          <g class="f8badb1b-90e4-40b6-acbb-92e544324b59">
            <g id="e2d4b0d0-b570-4533-980e-342025f68aac" data-name="Tongue">
              <g>
                <path class="fcf353d4-5b8e-4124-805c-102c822807dc" d="M52.0087,58.057c5.9021.1008,5.9012,8.88,0,8.98C46.1066,66.9362,46.1075,58.1569,52.0087,58.057Z" transform="translate(0.179 6.2837)"/>
                <path class="fcf353d4-5b8e-4124-805c-102c822807dc" d="M56.0905,58.057c5.9022.1008,5.9012,8.88,0,8.98C50.1884,66.9362,50.1893,58.1569,56.0905,58.057Z" transform="translate(0.179 6.2837)"/>
              </g>
            </g>
          </g>
        </g>
        <g id="b1975170-ecc9-4276-a4d1-14df63bc11b3" data-name="Nose/Default">
          <path id="bacbb776-3652-4d26-b498-923085992ce0" data-name="Nose" class="efc7c13a-5b9a-4657-bba3-b7d8da93f64d" d="M49.1514,46.6278c0,1.8035,2.193,3.2655,4.8982,3.2655s4.8982-1.462,4.8982-3.2655" transform="translate(0.179 6.2837)"/>
        </g>
        <g id="ff1e7d06-34c4-4479-a50c-a117155a2725" data-name="Eyes/Default-ðŸ˜€">
          <path id="f9650454-2468-44ed-a1c3-61aa5d2e0ec6" data-name="Eye" class="e116a72a-74e7-4f5a-a096-cdb8ef9fb19b" d="M43.4368,36.8314c3.1776-.0464,3.1777,4.945,0,4.8982C40.2592,41.776,40.2592,36.7846,43.4368,36.8314Z" transform="translate(0.179 6.2837)"/>
          <path id="e09c1a1d-e701-47af-97d7-31702a09380d" data-name="Eye" class="e116a72a-74e7-4f5a-a096-cdb8ef9fb19b" d="M64.6624,36.8314c3.1776-.0464,3.1776,4.945,0,4.8982C61.4848,41.776,61.4847,36.7846,64.6624,36.8314Z" transform="translate(0.179 6.2837)"/>
        </g>
        <g id="aa5bd23c-2673-41e9-84a0-ed3081cb85ed" data-name="Eyebrow/Natural/Raised-Excited-Natural">
          <path id="e157f20c-f83a-4a21-96d4-3438443c24aa" data-name="Eye-Browse-Reddit" class="e116a72a-74e7-4f5a-a096-cdb8ef9fb19b" d="M40.4842,27.6793l.3718-.1644a10.3836,10.3836,0,0,1,7.3659.4585c.2314.1112.0732.4706-.164.4523-6.3649-.5865-10.0574,3.6717-11.7789,5.9082C35.3369,32.1626,38.0951,28.6253,40.4842,27.6793Z" transform="translate(0.179 6.2837)"/>
          <path id="a40f6568-fa4f-4615-bdef-7ad9ba587111" data-name="Eye-Browse-Reddit" class="e116a72a-74e7-4f5a-a096-cdb8ef9fb19b" d="M67.615,27.6793l-.3718-.1644a10.3833,10.3833,0,0,0-7.3658.4585c-.2315.1112-.0733.4706.1639.4523,6.3649-.5865,10.0574,3.6717,11.7789,5.9082C72.7623,32.1626,70.0041,28.6253,67.615,27.6793Z" transform="translate(0.179 6.2837)"/>
        </g>
      </g>
      <g id="a3ed1426-b3d2-4cc6-9b10-c7928f3d7ffc" data-name="Top">
        <g class="aa3daad7-50e1-4fd3-a7b6-cd2d87f0027c">
          <g id="eef81427-16c5-485e-8afb-bc0629d2d211" data-name="Top/Short-Hair/Short-Flat">
            <g>
              <g id="b68b4d0e-03e5-4f74-acab-5233c5f676bd" data-name="Short-Hair">
                <path id="b90be56a-6a8d-44ae-9b9d-dc1cec86cdcc" data-name="react-path-38" class="f766bf91-15fd-4880-986b-9b35f896b1d2" d="M73.2955,9.8588c-1.6084-1.6942-3.6116-2.86-5.325-4.4358-.184-.4053-.0773-.09-.0519-.5734C69.921.147,66.941,2.8227,64.3957,3.333c1.9128-3.7433-1.9114-.9243-3.376-.3566,1.7835-2.4681,1.0922-3.15-1.4907-1.6C53.8167,3.5376,46.9881,2.4047,41.4517,5.072,31.4649,9.3513,29.3393,20.2025,30.0439,30.04c.0421.8446.1372,4.7391,1.3646,3.56.6115-.5876.607-2.9606.761-3.7638a37.685,37.685,0,0,1,1.1125-4.75c.9006-2.7262,1.9629-5.63,4.2063-7.5077,1.44-1.2048,2.4507-2.8332,3.8284-4.0486.6189-.5459.1467-.4891,1.1417-.4174q7.9977.286,16.0072.0114c1.3858-.0727,2.7754-.112,4.1574-.24.7721-.0716,2.142-.5664,2.7776-.1883.5816.346,1.1856,1.4756,1.6032,1.9382,8.8448,6.9585,7.0325,8.3592,9.0928,18.4377.5935,1.73,1.3872.69,1.1661-.8025C77.9277,24.9976,78.5684,15.7008,73.2955,9.8588Z" transform="translate(0.179 6.2837)"/>
              </g>
              <g class="bd33b559-8996-430f-9fd7-c60c612aad96">
                <g id="fa52638e-e9ce-4737-b2cd-305346613b4c" data-name="Skin/ðŸ‘¶ðŸ½-03-Brown">
                  <g id="ec685362-516e-4076-a2fb-6366a1898ad9" data-name="Color">
                    <rect class="f36fa363-9cf7-4be9-8472-f4ba0441f443" width="107.7605" height="114.2262"/>
                  </g>
                </g>
              </g>
            </g>
          </g>
        </g>
      </g>
    </g>
  </g>
</svg>
