<svg id="f98f6a94-a4ea-4b29-a7df-d384d7aace4c" data-name="bef3ddea-d1c0-45db-8dc6-9ae95e7c84ef" xmlns="http://www.w3.org/2000/svg" width="35.508" height="49.9998" viewBox="0 0 35.508 49.9998">
  <defs>
    <style>
      .fda6c626-cf8d-43f1-b72c-11d853d2d329 {
        opacity: 0.3;
      }

      .fcd047f5-0f1e-491d-9225-f7b4cadf83e7 {
        fill: #282642;
      }

      .b69bb868-404d-426b-93d9-0686d3cb5112, .bf3a300b-ba1b-4b9f-bece-d54321a627e6, .fcd047f5-0f1e-491d-9225-f7b4cadf83e7 {
        fill-rule: evenodd;
      }

      .b69bb868-404d-426b-93d9-0686d3cb5112 {
        fill: #4a4a77;
      }

      .bf3a300b-ba1b-4b9f-bece-d54321a627e6 {
        fill: #fff;
      }
    </style>
  </defs>
  <g class="fda6c626-cf8d-43f1-b72c-11d853d2d329">
    <path class="fcd047f5-0f1e-491d-9225-f7b4cadf83e7" d="M32.2347,12.8716,29.5893,44.0232,17.682,47.4164l-.0456-34.5448ZM35.508,9.9711s-2.1638,24.4915-3.3422,36.34c-16.2071,4.9348-12.6324,4.9017-28.9212,0C2.1638,34.4626,0,9.9711,0,9.9711Z"/>
    <polygon class="b69bb868-404d-426b-93d9-0686d3cb5112" points="32.264 12.838 29.627 44.159 17.588 47.519 17.588 12.838 32.264 12.838"/>
    <polygon class="bf3a300b-ba1b-4b9f-bece-d54321a627e6" points="28.879 17.47 28.406 21.671 18.639 26.451 28.054 26.451 26.911 40.228 17.519 42.76 8.58 40.153 7.943 33.187 12.512 33.211 12.712 36.709 17.519 38.02 22.823 36.666 23.262 30.859 7.752 30.883 7.408 26.655 17.912 21.955 6.982 21.793 6.684 17.47 28.879 17.47"/>
    <path class="fcd047f5-0f1e-491d-9225-f7b4cadf83e7" d="M28.3488,0V2.348h-1.82L28.3,4.7935V6.7509H22.9937V4.5982h1.72a.17.17,0,0,0,.0488-.0976l-1.9151-2.69V0ZM20.588,0V2.348h-1.77l1.77,2.3967V6.7509H15.284V4.55h1.7665L15.1353,1.762V0ZM12.7807,0V2.25H9.5894V4.598h3.1913V6.7509H7.2814V0Z"/>
  </g>
</svg>
