<svg id="e97e6a4f-665d-4b26-9733-13e6f983a777" data-name="Layer 1" xmlns="http://www.w3.org/2000/svg" width="36.2424" height="50" viewBox="0 0 36.2424 50">
  <defs>
    <style>
      .ad3ce787-4ac7-4a20-bead-cff2d7cdb14d {
        opacity: 0.3;
      }

      .b940dc46-307a-448f-8422-e17e73b5de5d {
        fill: #292642;
      }
    </style>
  </defs>
  <g id="a2600d84-eb45-4aaf-b5fb-ef7068dbb4b8" data-name="Personal-1-mixed" class="ad3ce787-4ac7-4a20-bead-cff2d7cdb14d">
    <g id="ed71abcd-2e65-41da-aeac-59f7e29d603b" data-name="clients">
      <g id="b42aba2d-909b-434a-b981-a7405d0b65f8" data-name="Group-5">
        <g id="e36a08c6-ccfe-49f6-bc88-28ed1c072bb0" data-name="client-6">
          <g id="a24d282f-a783-407a-a6da-74521acb2000" data-name="#000000ff">
            <path id="ec5a832e-e567-487b-bc93-db7fb331f2aa" data-name="Path" class="b940dc46-307a-448f-8422-e17e73b5de5d" d="M7.8107.0148C10.0115-.0124,12.2123.0064,14.413.0054c.0053.6877.0158,1.3754-.0094,2.0631-1.5248-.01-3.0486,0-4.5724.0094-.0105.9986-.03,1.9971-.0209,2.9957,1.53.0094,3.0611.0241,4.5912.0178.0178.5652.0115,1.1326-.0052,1.6988-2.1945-.0146-4.389-.0083-6.5835-.0062C7.818,4.5272,7.8222,2.2715,7.8107.0148Z"/>
            <path id="b81bb85b-877e-4ce1-ac84-ba185053faac" data-name="Path" class="b940dc46-307a-448f-8422-e17e73b5de5d" d="M15.198.0075C17.426.0033,19.6541-.01,21.8831.0148c-.0083.65-.0021,1.299-.0021,1.949q-2.4318-.0078-4.8647.0209.0031.3831,0,.7662c1.6191.0262,3.2372.0293,4.8553.0388.0063,1.3324.0032,2.6639.0115,3.9953q-3.3435-.0063-6.6872.0084c-.0115-.538-.0126-1.075.0031-1.613,1.5448.0042,3.0906.0063,4.6353-.0063.0094-.3465.0136-.694.0126-1.04-1.5521,0-3.1052.0052-4.6573-.0053C15.19,2.7551,15.19,1.3808,15.198.0075Z"/>
            <path id="f277c940-8b50-4476-a957-8e01d0df2f7b" data-name="Path" class="b940dc46-307a-448f-8422-e17e73b5de5d" d="M22.6293.019h6.6726c.0094.6531.0188,1.3063-.0021,1.9584-1.6286-.001-3.2572.0084-4.8858.0115.0042.2669.01.5339.0241.8008,1.6192-.0074,3.2383.0125,4.8564.0293.0147,1.3262.0252,2.6524.0063,3.9786q-3.3435-.0095-6.6872.0042c-.0136-.536-.0178-1.074.0052-1.61q2.3124.0172,4.6269-.0052c.0042-.3476.0115-.6951.0084-1.0415-1.5479.0146-3.0968.0063-4.6457.001C22.6084,2.7708,22.6188,1.3944,22.6293.019Z"/>
          </g>
          <g id="f123150b-5d7a-4924-a401-47f6e6812ad0" data-name="#0170baff">
            <path id="f1908342-67b0-4d0c-9861-b4160f4f094c" data-name="Shape" class="b940dc46-307a-448f-8422-e17e73b5de5d" d="M0,9.4614q18.1218-.0018,36.2424,0c-.6649,7.4113-1.3192,14.8226-2.0117,22.2317q-.6172,7.1033-1.2832,14.2033c-2.5781.6736-5.1307,1.4414-7.7077,2.1182C22.8728,48.7,20.4866,49.32,18.1186,50h-.07c-2.2536-.6611-4.5294-1.2427-6.783-1.9038-2.66-.7071-5.2961-1.4959-7.9569-2.2-.3467-3.5472-.66-7.0964-.9682-10.6457C1.7583,28.693,1.1252,22.14.5652,15.5808.3712,13.6069.2322,11.6268,0,9.6571V9.4614m18.178,2.9238c-.0255,1.4236.019,2.8483-.0255,4.271-4.1444-.0147-8.29-.0032-12.4343.001.071,1.3818.2588,2.7543.4518,4.1246,3.8559.1412,7.7172-.0053,11.5731.1088-3.3734,1.4927-6.7882,2.8986-10.1765,4.36a4.6051,4.6051,0,0,0-.8611.41c.0286,1.5179.2768,3.0273.386,4.542,2.0553-.0073,4.11-.04,6.1647-.0429,1.6469-.0084,3.295.0241,4.9419-.0115-.0785,2.4959.0244,4.9949-.053,7.4907-1.1082-.1621-2.2027-.4058-3.3066-.5993-.8707-.1873-1.7626-.2846-2.62-.53-.122-1.1977-.2068-2.4-.315-3.5984a2.7832,2.7832,0,0,0-.7678-.0722c-1.245.0074-2.4911-.0042-3.7372.0147a67.6422,67.6422,0,0,0,.6893,6.8882c1.2281.3159,2.4583.6255,3.6842.955,1.8781.5042,3.78.9237,5.6609,1.42a2.4075,2.4075,0,0,0,.6819.11c.1252,1.5157.0287,3.0408.052,4.5607a9.5369,9.5369,0,0,0,1.2789-.3023c3.5612-.954,7.1181-1.9257,10.6771-2.8892.1771-1.3807.26-2.7709.4-4.1549q.5552-6.3108,1.1316-12.62c.4549-4.8119.8484-9.6289,1.3065-14.4407C28.0321,12.3831,23.105,12.37,18.178,12.3852Z"/>
          </g>
          <g id="a754e6ef-6272-4fd0-8e51-7dd2a2ce729c" data-name="#29a9dfff">
            <path id="fc545045-c000-49fc-9e59-8a46c4b94f88" data-name="Path" class="b940dc46-307a-448f-8422-e17e73b5de5d" d="M15.7059,12.271c6.0185-.0161,12.037-.0021,18.0567-.0064-.56,4.9511-1.04,9.9076-1.5959,14.8588q-.7111,6.4919-1.3822,12.9859c-.171,1.424-.2721,2.8545-.4884,4.2752-4.3474.9913-8.6922,1.9912-13.0422,2.9729a13.5034,13.5034,0,0,1-1.5623.311c-.0285-1.5639.0894-3.1332-.0634-4.6928l.1567-.0258c4.0456-.8439,8.0639-1.7727,12.1005-2.6467.51-4.7574,1.0764-9.5127,1.4353-14.28-3.4329.015-6.867.0064-10.3.0183-.5.0021-1,0-1.4974-.03,1.8472-.79,3.79-1.4164,5.6868-2.1214,1.82-.6857,3.6621-1.3282,5.4887-2.0009a5.5286,5.5286,0,0,0,1.0376-.4467,5.957,5.957,0,0,0,.1632-1.14c.1049-1.2055.2915-2.4045.3614-3.6111-4.8616-.0322-9.7233-.0043-14.5863-.0258C15.7292,15.2019,15.6748,13.7359,15.7059,12.271Z"/>
            <path id="a90cac16-765a-47bb-ad4f-5b7ed51ea88e" data-name="Path" class="b940dc46-307a-448f-8422-e17e73b5de5d" d="M17.9731,29.8217c1.9959-.0336,3.9928.02,5.99.0065-.1113,2.0081-.2809,4.013-.3867,6.0212-1.2237.3934-2.4661.7261-3.7,1.09a14.54,14.54,0,0,0-1.9584.6427C17.9984,34.9965,17.8916,32.4074,17.9731,29.8217Z"/>
          </g>
        </g>
      </g>
    </g>
  </g>
</svg>
