<svg id="bd0ad33e-78a9-41d5-bb22-f4b0addb841f" data-name="Layer 1" xmlns="http://www.w3.org/2000/svg" xmlns:xlink="http://www.w3.org/1999/xlink" width="120" height="28.256" viewBox="0 0 120 28.256">
  <defs>
    <style>
      .ad3dea34-ed7b-4ae5-9969-983e3baf8ae9 {
        opacity: 0.3;
      }

      .ae8c7a67-ae68-4f51-b4db-be3b366a5d64 {
        fill: #474461;
      }

      .bc53951b-a62a-4542-b9e5-0b6eff585e10 {
        fill: url(#b684afbd-49a8-42ec-8c47-67193e2f2165);
      }

      .b0e5dc95-9d23-4fdc-b9e1-821b4a2b281c {
        fill: url(#e5272c5e-2562-4448-92a0-a801410620f2);
      }

      .a2bf354b-473c-4aaf-b144-cf7561e0297d {
        fill: #13569b;
      }

      .e5cf13d9-d77e-4c2a-8f6e-375109029b17 {
        fill: url(#a9ece06d-acb8-49b3-9db4-0c0a100c766b);
      }

      .bb92e6a1-36bf-43ad-83c3-c341ddbca149 {
        fill: #3292c4;
      }

      .b1a87ddc-c9ea-4d7b-820e-dd2cae54263e {
        fill: #266ab4;
      }

      .a41969b8-bd93-4a14-be2b-050e1cff10d7 {
        fill: url(#f3ab544f-347e-45d7-9418-ae9429714fa9);
      }

      .f1c178f0-3a34-4f7a-aceb-f1dca6da81c3 {
        fill: url(#afeed805-527b-4bc8-8da8-841ec78d6f1b);
      }

      .f2534a7b-7e0e-46b6-afa0-3a1063816e03 {
        fill: url(#b62bf6f7-e40e-4ef3-aa6b-4030feddb82f);
      }

      .a7e78b8a-4527-47d0-a175-b25c58a37e51 {
        fill: #2c75b2;
      }

      .bc3c4d25-b44f-482f-b70e-804d26fec917 {
        fill: #145b9e;
      }

      .f4e1587a-27fc-4e79-a964-e91cdb82fe71 {
        fill: url(#ac93fa61-772e-4e9a-9e7a-3efa976d4f2d);
      }

      .f4658570-78ef-4618-b631-d2c5a1543a25 {
        fill: url(#b905c6ab-a89a-4766-8c1c-359d2857f5bb);
      }

      .f67fe75e-3fce-460d-ab5c-ea5ead66c4f6 {
        fill: #1982c5;
      }

      .e16e0a16-821b-42c4-a567-53390fca39f1 {
        fill: url(#ffef4ce6-3be7-4a40-8bbb-b7f0044b2475);
      }

      .e790ee9a-e8e2-4740-aef4-207611e96017 {
        fill: #277bbf;
      }

      .a668359e-f5f0-4fe5-8f3c-d2dd7a40a7df {
        fill: url(#a1f988b9-9e2f-4fdf-a5dc-338d5edcefb1);
      }

      .e51d78d6-243b-46b2-bad9-63858c5b274b {
        fill: url(#b46aa5af-4f31-478f-8ded-599b7c70dec5);
      }

      .b80c4a16-05d1-4f6c-a9ec-aa4bba3005bb {
        fill: #269fda;
      }

      .b619dd8f-af60-41fa-a76a-4c6fdd45331c {
        fill: url(#bdb33e13-7189-4f74-9346-655f56d143df);
      }

      .a032f497-841e-4c81-a758-c519a29a5ed8 {
        fill: url(#abd162e6-0373-46c5-87b4-764c0d0f458d);
      }

      .efba4f47-a259-4cbc-bf0c-d6af6c63e2b9 {
        fill: url(#a2d16a1b-1c82-4829-813b-ebddc1b3f606);
      }

      .bbeaf83d-035c-4372-9866-8d2d45108409 {
        fill: #2898d5;
      }

      .b562179c-6105-4df2-9216-4d862339db46 {
        fill: #295eac;
      }

      .b137cfd3-327f-416c-a4fa-f83917126562 {
        fill: #2862ae;
      }

      .a712583d-82ee-423d-a5b1-496e676b34e3 {
        fill: #1d60ab;
      }

      .b96d1460-020a-487d-89b1-3f18cc70af79 {
        fill: url(#a9989024-d8d8-49eb-9589-ece4d360b047);
      }

      .f0b956fe-3aec-41d1-a2b6-7623b49d2481 {
        fill: #7ecbeb;
      }

      .a45ebf7a-44f2-42a8-86c1-fa7879646e79 {
        fill: #61c5ec;
      }

      .a6e8bab2-e90d-4643-b1f3-5548588e66ce {
        fill: url(#bdccdb86-d61b-4878-ab18-7403521fa4e0);
      }

      .ba179442-9562-486e-b597-0f1e5fe14fe0 {
        fill: url(#aea35768-c497-4b64-8b93-3ad97c7451fc);
      }

      .e3f1f5ff-543e-4401-8f16-e93fd299eaa9 {
        fill: url(#baf54e38-14af-423f-bfc2-fb943ec4c80c);
      }

      .a44e3be4-c2a5-40ea-bea7-83e1159741e1 {
        fill: #010101;
      }
    </style>
    <linearGradient id="b684afbd-49a8-42ec-8c47-67193e2f2165" x1="54.8296" y1="257.6975" x2="54.8296" y2="257.2815" gradientTransform="matrix(45.6076, 0, 0, -81.335, -2469.6497, 20960.2495)" gradientUnits="userSpaceOnUse">
      <stop offset="0" stop-color="#2693d1"/>
      <stop offset="0.35" stop-color="#67cef4"/>
      <stop offset="0.8462" stop-color="#277bbf"/>
      <stop offset="1" stop-color="#277bbf"/>
    </linearGradient>
    <linearGradient id="e5272c5e-2562-4448-92a0-a801410620f2" x1="54.9034" y1="257.6255" x2="54.9034" y2="257.2095" gradientTransform="matrix(47.8692, 0, 0, -83.4083, -2595.8932, 21487.6638)" gradientUnits="userSpaceOnUse">
      <stop offset="0" stop-color="#1377bc"/>
      <stop offset="0.36" stop-color="#3dade2"/>
      <stop offset="0.8462" stop-color="#2dabe2"/>
      <stop offset="1" stop-color="#2dabe2"/>
    </linearGradient>
    <linearGradient id="a9ece06d-acb8-49b3-9db4-0c0a100c766b" x1="54.3492" y1="257.1303" x2="54.3492" y2="257.457" gradientTransform="matrix(45.4522, 0, 0, -84.5, -2431.0332, 21754.2692)" gradientUnits="userSpaceOnUse">
      <stop offset="0" stop-color="#2865b0"/>
      <stop offset="0.5" stop-color="#3fbced"/>
      <stop offset="1" stop-color="#3fbced" stop-opacity="0.4196"/>
    </linearGradient>
    <linearGradient id="f3ab544f-347e-45d7-9418-ae9429714fa9" x1="54.4189" y1="257.4558" x2="54.4189" y2="257.0399" gradientTransform="matrix(45.0105, 0, 0, -86.5982, -2411.9811, 22291.2702)" gradientUnits="userSpaceOnUse">
      <stop offset="0" stop-color="#206bb5"/>
      <stop offset="0.4" stop-color="#3dade2"/>
      <stop offset="0.8462" stop-color="#2397d4"/>
      <stop offset="1" stop-color="#2397d4"/>
    </linearGradient>
    <linearGradient id="afeed805-527b-4bc8-8da8-841ec78d6f1b" x1="55.3328" y1="257.3667" x2="55.3328" y2="256.9507" gradientTransform="matrix(58.3509, 0, 0, -92.0822, -3194.1133, 23695.1344)" gradientUnits="userSpaceOnUse">
      <stop offset="0" stop-color="#174479"/>
      <stop offset="0.39" stop-color="#1d87c9"/>
      <stop offset="0.7802" stop-color="#165297"/>
      <stop offset="1" stop-color="#165297"/>
    </linearGradient>
    <linearGradient id="b62bf6f7-e40e-4ef3-aa6b-4030feddb82f" x1="51.802" y1="260.6176" x2="52.0809" y2="260.6176" gradientTransform="matrix(19.4176, 0, 0, -30.9219, -986.6522, 8066.782)" gradientUnits="userSpaceOnUse">
      <stop offset="0" stop-color="#3fbced" stop-opacity="0.698"/>
      <stop offset="1" stop-color="#20acd8"/>
    </linearGradient>
    <linearGradient id="ac93fa61-772e-4e9a-9e7a-3efa976d4f2d" x1="55.1722" y1="256.9058" x2="55.1722" y2="257.1784" gradientTransform="matrix(79.1425, 0, 0, -98.6787, -4306.5759, 25377.1905)" gradientUnits="userSpaceOnUse">
      <stop offset="0" stop-color="#166bb5"/>
      <stop offset="0.6" stop-color="#5ec9f4" stop-opacity="0.549"/>
      <stop offset="1" stop-color="#5ec9f4" stop-opacity="0.2353"/>
    </linearGradient>
    <linearGradient id="b905c6ab-a89a-4766-8c1c-359d2857f5bb" x1="56.5558" y1="257.0387" x2="56.8347" y2="257.0387" gradientTransform="matrix(72.0226, 0, 0, -99.1613, -4073.2932, 25502.7028)" gradientUnits="userSpaceOnUse">
      <stop offset="0" stop-color="#269fda" stop-opacity="0.2471"/>
      <stop offset="1" stop-color="#269fda"/>
    </linearGradient>
    <linearGradient id="ffef4ce6-3be7-4a40-8bbb-b7f0044b2475" x1="56.0899" y1="257.3671" x2="56.0899" y2="257.7401" gradientTransform="matrix(49.0511, 0, 0, -73.8222, -2740.1486, 19026.1443)" gradientUnits="userSpaceOnUse">
      <stop offset="0" stop-color="#388dcc"/>
      <stop offset="1" stop-color="#40a6de"/>
    </linearGradient>
    <linearGradient id="a1f988b9-9e2f-4fdf-a5dc-338d5edcefb1" x1="55.8574" y1="258.5608" x2="55.8574" y2="259.0293" gradientTransform="matrix(45.6036, 0, 0, -57.1283, -2534.4399, 14797.9827)" gradientUnits="userSpaceOnUse">
      <stop offset="0" stop-color="#269fda"/>
      <stop offset="1" stop-color="#269fda" stop-opacity="0.549"/>
    </linearGradient>
    <linearGradient id="b46aa5af-4f31-478f-8ded-599b7c70dec5" x1="56.0511" y1="257.3934" x2="56.0511" y2="257.6723" gradientTransform="matrix(52.5191, 0, 0, -81.0936, -2929.4549, 20901.1553)" gradientUnits="userSpaceOnUse">
      <stop offset="0" stop-color="#1e5ba6"/>
      <stop offset="0.5" stop-color="#269fda"/>
      <stop offset="0.9176" stop-color="#7fc5e9"/>
      <stop offset="1" stop-color="#7fc5e9"/>
    </linearGradient>
    <linearGradient id="bdb33e13-7189-4f74-9346-655f56d143df" x1="56.6217" y1="256.918" x2="56.5622" y2="257.1657" gradientTransform="matrix(72.6768, 0, 0, -99.0047, -4099.9175, 25462.8399)" gradientUnits="userSpaceOnUse">
      <stop offset="0" stop-color="#165196"/>
      <stop offset="1" stop-color="#1982c5"/>
    </linearGradient>
    <linearGradient id="abd162e6-0373-46c5-87b4-764c0d0f458d" x1="51.7227" y1="258.0661" x2="51.7227" y2="258.2901" gradientTransform="matrix(32.7663, 0, 0, -57.2261, -1639.4732, 14781.0119)" gradientUnits="userSpaceOnUse">
      <stop offset="0" stop-color="#269fda"/>
      <stop offset="0.8736" stop-color="#1795d3"/>
      <stop offset="1" stop-color="#1795d3"/>
    </linearGradient>
    <linearGradient id="a2d16a1b-1c82-4829-813b-ebddc1b3f606" x1="54.4203" y1="257.2182" x2="54.3339" y2="256.9114" gradientTransform="matrix(60.2691, 0, 0, -96.3231, -3218.5541, 24774.9378)" gradientUnits="userSpaceOnUse">
      <stop offset="0" stop-color="#40a6de" stop-opacity="0.3294"/>
      <stop offset="0.9615" stop-color="#2687c8"/>
      <stop offset="1" stop-color="#2687c8"/>
    </linearGradient>
    <linearGradient id="a9989024-d8d8-49eb-9589-ece4d360b047" x1="54.9521" y1="257.1795" x2="54.9521" y2="256.8945" gradientTransform="matrix(70.2816, 0, 0, -98.1105, -3805.4714, 25231.9225)" gradientUnits="userSpaceOnUse">
      <stop offset="0" stop-color="#258bcc"/>
      <stop offset="0.5" stop-color="#2287c9"/>
      <stop offset="1" stop-color="#164c8d"/>
    </linearGradient>
    <linearGradient id="bdccdb86-d61b-4878-ab18-7403521fa4e0" x1="54.0637" y1="219.261" x2="54.2621" y2="219.8897" gradientTransform="translate(-1733.8941 -932.322) scale(32.4594 4.2491)" gradientUnits="userSpaceOnUse">
      <stop offset="0" stop-color="#98d5ed"/>
      <stop offset="0.7033" stop-color="#57c1ea"/>
      <stop offset="1" stop-color="#57c1ea"/>
    </linearGradient>
    <linearGradient id="aea35768-c497-4b64-8b93-3ad97c7451fc" x1="52.8177" y1="234.9963" x2="53.0098" y2="234.6882" gradientTransform="translate(-1373.4917 -1756.1657) scale(26.4722 7.484)" gradientUnits="userSpaceOnUse">
      <stop offset="0" stop-color="#7bcceb"/>
      <stop offset="1" stop-color="#45b7e9"/>
    </linearGradient>
    <linearGradient id="baf54e38-14af-423f-bfc2-fb943ec4c80c" x1="54.1189" y1="257.4883" x2="54.1189" y2="257.1491" gradientTransform="matrix(52.0449, 0, 0, -80.6355, -2763.7466, 20764.1735)" gradientUnits="userSpaceOnUse">
      <stop offset="0" stop-color="#2da6de"/>
      <stop offset="1" stop-color="#3eaae0" stop-opacity="0"/>
    </linearGradient>
  </defs>
  <g class="ad3dea34-ed7b-4ae5-9969-983e3baf8ae9">
    <g>
      <path class="ae8c7a67-ae68-4f51-b4db-be3b366a5d64" d="M118.999,2.4839a.254.254,0,0,0-.08-.209.5.5,0,0,0-.3075-.0739h-.2072V2.77h.25c.2309,0,.345-.0957.345-.2865Zm.323,1.1873h-.2847l-.1816-.4007c-.0922-.2007-.1907-.3011-.2984-.3011h-.1533v.7018h-.2346v-1.67h.47a.6973.6973,0,0,1,.4737.14.401.401,0,0,1,.1369.3149.4108.4108,0,0,1-.1123.2919.5623.5623,0,0,1-.3121.1643v.0073c.0931.0219.1861.1241.2765.3084l.22.4445Zm.52-.8186a1.1144,1.1144,0,0,0-.3359-.8259,1.1562,1.1562,0,0,0-1.981.8259,1.1585,1.1585,0,1,0,2.3169,0ZM120,2.8453a1.245,1.245,0,0,1-.3814.9272,1.3728,1.3728,0,0,1-1.8762.0109,1.2485,1.2485,0,0,1-.3714-.928,1.26,1.26,0,0,1,.3778-.9262,1.3652,1.3652,0,0,1,1.8671-.0173A1.238,1.238,0,0,1,120,2.8453Z"/>
      <path class="ae8c7a67-ae68-4f51-b4db-be3b366a5d64" d="M84.3083,7.502h-.8094V2.87c0-.3659.0241-.8112.0671-1.3368h-.0182a4.3874,4.3874,0,0,1-.2062.668L80.989,7.502h-.3942L78.2377,2.2394a3.8469,3.8469,0,0,1-.2062-.7063h-.0176c.0249.2765.0387.7246.0387,1.346V7.502h-.78V.6041H78.34l2.1163,4.81a6.2171,6.2171,0,0,1,.3129.8259h.0336c.1378-.3769.2473-.66.33-.846l2.1618-4.79h1.0129V7.502Z"/>
      <path class="ae8c7a67-ae68-4f51-b4db-be3b366a5d64" d="M86.798,7.5018h-.7865V2.5759h.7865V7.5018ZM86.934.81a.4928.4928,0,0,1-.1524.366.5.5,0,0,1-.3668.15.5083.5083,0,0,1-.3631-.1442.4916.4916,0,0,1-.15-.3714.4891.4891,0,0,1,.15-.3622.5291.5291,0,0,1,.73,0A.4869.4869,0,0,1,86.934.81Z"/>
      <path class="ae8c7a67-ae68-4f51-b4db-be3b366a5d64" d="M91.7138,7.2739a2.5332,2.5332,0,0,1-1.35.3467A2.2211,2.2211,0,0,1,88.655,6.918a2.4867,2.4867,0,0,1-.6342-1.76,2.7458,2.7458,0,0,1,.6962-1.9565,2.4275,2.4275,0,0,1,1.868-.7455,2.5136,2.5136,0,0,1,1.14.25v.8095a1.9988,1.9988,0,0,0-1.1735-.3861,1.5778,1.5778,0,0,0-1.2264.5248,2.0335,2.0335,0,0,0-.4965,1.4326,1.9535,1.9535,0,0,0,.4554,1.3615,1.5665,1.5665,0,0,0,1.2182.5,1.9892,1.9892,0,0,0,1.2119-.4234v.7492Z"/>
      <path class="ae8c7a67-ae68-4f51-b4db-be3b366a5d64" d="M95.4762,3.3751a1.054,1.054,0,0,0-1.41.2737A2.1594,2.1594,0,0,0,93.6959,4.99V7.5016h-.7884V2.5757h.7884V3.5914h.019a1.73,1.73,0,0,1,.5338-.8323,1.1807,1.1807,0,0,1,.7547-.2692,1.28,1.28,0,0,1,.4727.0671v.8181Z"/>
      <path class="ae8c7a67-ae68-4f51-b4db-be3b366a5d64" d="M99.8705,5.0478a2.1527,2.1527,0,0,0-.4271-1.4427,1.4551,1.4551,0,0,0-1.16-.4764,1.52,1.52,0,0,0-1.1772.4819A2.09,2.09,0,0,0,96.64,5.067a1.9907,1.9907,0,0,0,.4463,1.3824,1.5255,1.5255,0,0,0,1.1972.4983,1.44,1.44,0,0,0,1.1872-.5046,2.1608,2.1608,0,0,0,.4-1.3953m.8085-.0278a2.6566,2.6566,0,0,1-.6634,1.8881,2.333,2.333,0,0,1-1.79.7118,2.2629,2.2629,0,0,1-1.7593-.7118,2.5648,2.5648,0,0,1-.6352-1.8123,2.6423,2.6423,0,0,1,.7218-1.9866A2.448,2.448,0,0,1,98.34,2.4549a2.2133,2.2133,0,0,1,1.7219.6826A2.7168,2.7168,0,0,1,100.679,5.02"/>
      <path class="ae8c7a67-ae68-4f51-b4db-be3b366a5d64" d="M104.5891,6.1839a1.2806,1.2806,0,0,1-.4526,1.0038,1.9847,1.9847,0,0,1-1.3514.4326,2.4162,2.4162,0,0,1-1.222-.2966V6.4759a1.9816,1.9816,0,0,0,1.28.4719q.9363,0,.9371-.6881a.6087.6087,0,0,0-.2071-.4755,3.2794,3.2794,0,0,0-.8085-.4526,2.594,2.594,0,0,1-.88-.5585,1.2691,1.2691,0,0,1-.313-.89,1.2793,1.2793,0,0,1,.4864-1.02,1.8779,1.8779,0,0,1,1.251-.4079,2.336,2.336,0,0,1,1.0531.2309V3.48a1.8578,1.8578,0,0,0-1.1178-.3514.9671.9671,0,0,0-.6269.1917.6139.6139,0,0,0-.2373.4964.6584.6584,0,0,0,.198.5092,2.7379,2.7379,0,0,0,.7392.4088,2.8483,2.8483,0,0,1,.91.5457,1.2149,1.2149,0,0,1,.3613.9034"/>
      <path class="ae8c7a67-ae68-4f51-b4db-be3b366a5d64" d="M109.4076,5.0478a2.148,2.148,0,0,0-.4279-1.4427,1.4533,1.4533,0,0,0-1.1589-.4764,1.5262,1.5262,0,0,0-1.1791.4819,2.0945,2.0945,0,0,0-.4645,1.4564,2.0038,2.0038,0,0,0,.4435,1.3824,1.5384,1.5384,0,0,0,1.2.4983,1.439,1.439,0,0,0,1.1871-.5046,2.1608,2.1608,0,0,0,.4-1.3953m.81-.0278a2.6542,2.6542,0,0,1-.6662,1.8881,2.3263,2.3263,0,0,1-1.7886.7118,2.2637,2.2637,0,0,1-1.76-.7118,2.5648,2.5648,0,0,1-.6352-1.8123,2.652,2.652,0,0,1,.721-1.9866,2.4509,2.4509,0,0,1,1.7894-.6543,2.2084,2.2084,0,0,1,1.72.6826,2.714,2.714,0,0,1,.62,1.8825"/>
      <path class="ae8c7a67-ae68-4f51-b4db-be3b366a5d64" d="M113.6923.9021a1.06,1.06,0,0,0-.5238-.13c-.5522,0-.8259.3476-.8259,1.0439v.7592h1.1544v.668h-1.1544V7.5016h-.7893V3.2437h-.8377v-.668h.8377V1.7773a1.633,1.633,0,0,1,.5037-1.274,1.5109,1.5109,0,0,1,1.064-.3987,1.5412,1.5412,0,0,1,.5713.0858V.9021Z"/>
      <path class="ae8c7a67-ae68-4f51-b4db-be3b366a5d64" d="M116.8042,7.4521a1.4875,1.4875,0,0,1-.741.16q-1.2894,0-1.2894-1.4538V3.2445h-.845v-.669h.845V1.3737c.2519-.0794.5137-.166.79-.2555V2.5755h1.24v.669h-1.24v2.78a1.1266,1.1266,0,0,0,.1669.7035.68.68,0,0,0,.5631.2108.8356.8356,0,0,0,.51-.1588v.6725Z"/>
    </g>
    <g>
      <path class="ae8c7a67-ae68-4f51-b4db-be3b366a5d64" d="M74.1813,26.7269a1.4318,1.4318,0,0,1-1.4253,1.4245,1.3124,1.3124,0,0,1-.9838-.4226,1.4553,1.4553,0,0,1,0-2.0112,1.3162,1.3162,0,0,1,.9838-.4161,1.3623,1.3623,0,0,1,1.0092.4216,1.3792,1.3792,0,0,1,.4161,1.0038"/>
      <path class="ae8c7a67-ae68-4f51-b4db-be3b366a5d64" d="M91.835,27.8613H89.2635L79.9292,13.4459a6.6157,6.6157,0,0,1-.5658-1.1352h-.0767a18.7907,18.7907,0,0,1,.1,2.4839V27.8613h-2.12V9.7757h2.7513l9.0551,14.1882c.3605.563.6068.9663.7319,1.209h.05a19.0574,19.0574,0,0,1-.1277-2.6591V9.7757h2.1071V27.8613Z"/>
      <path class="ae8c7a67-ae68-4f51-b4db-be3b366a5d64" d="M105.425,27.8613H95.84V9.7757h9.1692V11.692H97.9577v6.0163h6.5338v1.9173H97.9577V25.944h7.4673v1.9173Z"/>
      <path class="ae8c7a67-ae68-4f51-b4db-be3b366a5d64" d="M119.9642,11.6922h-5.21V27.8616h-2.1189V11.6922h-5.22V9.775h12.5482v1.9172Z"/>
    </g>
  </g>
  <g class="ad3dea34-ed7b-4ae5-9969-983e3baf8ae9">
    <path class="bc53951b-a62a-4542-b9e5-0b6eff585e10" d="M24.6349,5.77c2.5562,7.817,3.5246,21.7618,11,21.7618h0a9.2039,9.2039,0,0,0,1.7213-.1655h0c-6.795-1.5843-7.6-15.3774-11.7467-22.52h0c-.3251.2954-.6479.6034-.9741.924"/>
    <path class="b0e5dc95-9d23-4fdc-b9e1-821b4a2b281c" d="M25.609,4.8464c4.1463,7.1429,4.9517,20.936,11.7467,22.52h0a10.7988,10.7988,0,0,0,1.6049-.4334h0c-6.0992-2.9886-7.7851-16.3824-12.4938-22.8307h0q-.4278.3561-.8578.7438"/>
    <path class="a2bf354b-473c-4aaf-b144-cf7561e0297d" d="M31.5832.5984a9.2331,9.2331,0,0,0-1.7224.1655,13.1867,13.1867,0,0,0-4.598,1.9219,11.4126,11.4126,0,0,1,1.2044,1.4168,16.5116,16.5116,0,0,1,4.7-2.854A10.476,10.476,0,0,1,32.92.7616,5.3985,5.3985,0,0,0,31.5832.5984"/>
    <path class="e5cf13d9-d77e-4c2a-8f6e-375109029b17" d="M43.7218,24.1785q.9359-.7441,1.8752-1.6436C43,14.7543,42.07.61,34.5427.61A8.9068,8.9068,0,0,0,32.92.7605c6.8566,1.7053,7.7349,16.6231,10.8022,23.418"/>
    <path class="bb92e6a1-36bf-43ad-83c3-c341ddbca149" d="M32.92.761A5.4074,5.4074,0,0,0,31.5829.598l2.96.0108A8.804,8.804,0,0,0,32.92.7606"/>
    <path class="b1a87ddc-c9ea-4d7b-820e-dd2cae54263e" d="M43.59,25.8314a11.1516,11.1516,0,0,1-.8487-.9171,15.5732,15.5732,0,0,1-3.7812,2.019,5.8256,5.8256,0,0,0,1.41.48,5.98,5.98,0,0,0,1.2011.1186,7.8767,7.8767,0,0,0,3.4654-.62,6.579,6.579,0,0,1-1.4464-1.08"/>
    <path class="a41969b8-bd93-4a14-be2b-050e1cff10d7" d="M31.1663,1.25c6.1415,3.2121,6.6753,17.758,11.5756,23.6644h0c.3285-.2315.6536-.4768.9787-.7358h0c-3.0672-6.7949-3.9444-21.7139-10.8-23.418h0a10.6115,10.6115,0,0,0-1.7544.4894"/>
    <path class="f1c178f0-3a34-4f7a-aceb-f1dca6da81c3" d="M26.4668,4.1026c4.7087,6.4483,6.3946,19.8421,12.4938,22.8307h0a15.5719,15.5719,0,0,0,3.7813-2.019h0C37.8416,19.0079,37.3078,4.462,31.1663,1.25h0a16.4823,16.4823,0,0,0-4.6995,2.8527"/>
    <path class="f2534a7b-7e0e-46b6-afa0-3a1063816e03" d="M21.6222,5.5821a70.2139,70.2139,0,0,0-2.4034,6.7255A50.0206,50.0206,0,0,1,24.6347,5.77a19.6282,19.6282,0,0,0-.8-2.0875,26.9975,26.9975,0,0,0-2.2129,1.8992"/>
    <path class="a7e78b8a-4527-47d0-a175-b25c58a37e51" d="M24.49,3.2017c-.2168.1551-.4346.3137-.6536.4814a19.6611,19.6611,0,0,1,.7985,2.0874c.3261-.3194.65-.6285.974-.9239A12.9193,12.9193,0,0,0,24.49,3.2017"/>
    <path class="bc3c4d25-b44f-482f-b70e-804d26fec917" d="M25.2628,2.6858c-.2578.1632-.5144.3354-.7734.5156a12.994,12.994,0,0,1,1.12,1.6461c.2864-.259.5726-.5088.8578-.7449a11.4119,11.4119,0,0,0-1.2045-1.4168"/>
    <path class="f4e1587a-27fc-4e79-a964-e91cdb82fe71" d="M67.1524.0031C63.679,13.398,56.4243,24.1569,50.3422,26.8694h-.0115c-.1106.05-.22.0958-.3285.14a.2869.2869,0,0,1-.04.0155c-.0319.0129-.0616.0229-.0935.0356a.2345.2345,0,0,1-.0422.0174c-.0512.0183-.1015.0338-.1517.0539-.0217.009-.0421.0147-.0628.0219a.79.79,0,0,1-.0752.0247c-.0228.009-.0467.0155-.073.0255-.0217.009-.0446.0129-.065.0219-.0446.0129-.0855.0237-.13.0392a.252.252,0,0,0-.0547.0147c-.0274.0091-.0582.0156-.0879.0237a.2666.2666,0,0,1-.0593.0165c-.0308.0091-.0651.0174-.0958.0247-.0411.009-.0776.0174-.1164.0255a2.4753,2.4753,0,0,0,.87.1529c5.7672,0,11.5823-10.3356,21.2039-27.5233H67.151Z"/>
    <path class="f4658570-78ef-4618-b631-d2c5a1543a25" d="M17.9664,1.142l.01-.009a.0117.0117,0,0,0,.0137-.0091h.0073c.0319-.0108.0616-.0237.0935-.0356a.017.017,0,0,0,.0183-.009c.0081,0,.016-.009.024-.01.0342-.0108.0684-.0237.1-.0356h.0054c.0765-.0228.1472-.0511.2213-.0775.01,0,.0206-.0091.033-.0091.0309-.01.0628-.021.0947-.0282a.1817.1817,0,0,1,.0433-.0138c.0331-.01.0651-.021.0959-.0283.0138,0,.0263-.0091.0365-.01.1061-.0292.211-.0565.3171-.0821.0149,0,.0274-.009.0433-.01a.6.6,0,0,1,.0924-.0183.1576.1576,0,0,1,.0457-.0138c.0307-.0091.06-.01.0935-.0174h.0217c.0638-.0129.1289-.0237.1928-.0356h.0387a.8132.8132,0,0,1,.089-.0156c.017,0,.0342-.009.05-.009A.664.664,0,0,0,19.834.652a.09.09,0,0,0,.0468-.0091c.0673-.009.1369-.0126.2076-.0183-.2-.0192-.4049-.0319-.6137-.0319C12.98.5927,4.0311,12.6439,0,28.2506H.7768c1.29-2.3007,2.449-4.4771,3.5087-6.52C7.1087,10.6763,12.8588,3.1375,17.9668,1.14"/>
    <path class="f67fe75e-3fce-460d-ab5c-ea5ead66c4f6" d="M21.6223,5.5821A26.9762,26.9762,0,0,1,23.8352,3.683a10.4337,10.4337,0,0,0-.527-1.0187,12.4767,12.4767,0,0,0-1.6859,2.9178"/>
    <path class="f67fe75e-3fce-460d-ab5c-ea5ead66c4f6" d="M22.1558,1.2334a5.5367,5.5367,0,0,1,1.1521,1.4315c.11-.1346.22-.2589.3354-.3753a6.5127,6.5127,0,0,0-1.57-1.0984.7075.7075,0,0,0,.0694.0328l.0128.0091"/>
    <path class="e16e0a16-821b-42c4-a567-53390fca39f1" d="M4.2852,21.7318c5.9224-11.4125,8.7285-18.6352,13.6813-20.59h0C12.86,3.14,7.1084,10.6787,4.2852,21.7318"/>
    <path class="e790ee9a-e8e2-4740-aef4-207611e96017" d="M23.6429,2.2893c-.1151.1176-.2246.2408-.3353.3754a10.6034,10.6034,0,0,1,.5281,1.0185c.219-.1676.4369-.3262.6536-.4813a8.8964,8.8964,0,0,0-.8464-.9126"/>
    <path class="a668359e-f5f0-4fe5-8f3c-d2dd7a40a7df" d="M6.9738,28.2006h0a.78.78,0,0,1-.1072.0129H6.846c-.0308,0-.0628.009-.0912.009H6.74c-.0741.0091-.1471.0091-.2179.0147H6.4992c5.9943-.1677,8.7342-3.1689,10.0938-7.5217,1.0335-3.3,1.8822-6.08,2.6259-8.4124a119.19,119.19,0,0,0-7.5684,12.4653,6.2074,6.2074,0,0,1-4.6768,3.4277"/>
    <path class="e51d78d6-243b-46b2-bad9-63858c5b274b" d="M6.9738,28.1983h0a6.2047,6.2047,0,0,0,4.6768-3.4277h0a119.6878,119.6878,0,0,1,7.5672-12.4653h0A70.0369,70.0369,0,0,1,21.6223,5.58h0C16.6228,10.3388,11.6038,18.2517,6.9738,28.1961"/>
    <path class="b80c4a16-05d1-4f6c-a9ec-aa4bba3005bb" d="M4.2849,21.7321c-1.06,2.043-2.2185,4.2194-3.5087,6.52h2.26a55.2373,55.2373,0,0,1,1.249-6.519"/>
    <path class="b619dd8f-af60-41fa-a76a-4c6fdd45331c" d="M19.8805.6488c-.0183,0-.0319.009-.0479.009h0a.3861.3861,0,0,1-.0844.012h0a.1.1,0,0,0-.05.009h0a.8359.8359,0,0,1-.089.0156h0A.0579.0579,0,0,0,19.57.7035h0c-.0651.0108-.1289.0228-.1928.0337h-.0217a.7467.7467,0,0,1-.0935.0183h0a.1582.1582,0,0,1-.0469.0127h0a.8709.8709,0,0,1-.0912.0183h0a.0876.0876,0,0,1-.0434.01h0c-.106.0256-.211.053-.3171.0822h0c-.0113,0-.0228.009-.0365.0108h0c-.0319.009-.0627.0183-.0958.0283h0A.1323.1323,0,0,1,18.5881.93h0c-.032.0091-.0639.0183-.0947.0283h0c-.0124,0-.0228.0091-.0342.0091h0c-.073.0273-.1449.0547-.22.0775h0c-.0319.01-.0661.0228-.1.0347h0a.2113.2113,0,0,1-.0422.0174h0c-.032.01-.0639.0228-.0936.0347h0a.165.165,0,0,1-.0307.0147h0c-4.9528,1.9551-7.7589,9.1778-13.6812,20.59h0a54.9738,54.9738,0,0,0-1.2491,6.519H3.359c.8932,0,1.1453-.0091,2.173-.0091h.9958c.0707-.009.1437-.009.2179-.0147h.0137c.0308,0,.0616-.009.0912-.009h.0217c.033,0,.0707-.009.1072-.0129h0C11.61,18.2659,16.6284,10.353,21.628,5.5941h0a12.5191,12.5191,0,0,1,1.6848-2.9166h0a5.5243,5.5243,0,0,0-1.1509-1.4328h0s-.0116,0-.0125-.009h0c-.024-.01-.0467-.022-.0707-.0338h0c-.024-.0129-.0445-.0228-.07-.0356h0c-.0217-.009-.0468-.021-.0685-.0328h0a.6572.6572,0,0,1-.08-.0338h0c-.0217-.0091-.0411-.0183-.0628-.0274h0c-.0445-.0174-.089-.0356-.1312-.0547h0c-.0194-.0091-.0376-.0138-.0559-.0211h0C21.58.9855,21.5448.971,21.5129.9573h0A.34.34,0,0,0,21.46.94h0C21.4137.9243,21.368.908,21.3247.8934h-.0113C21.2609.876,21.21.8633,21.156.8486h0a.0675.0675,0,0,0-.0354-.0108h0C21.0738.8249,21.0328.8122,20.9883.8h0c-.0113,0-.0217-.0091-.0307-.0091h0C20.85.763,20.74.74,20.6279.7193h0c-.0115,0-.0228-.0091-.0342-.0091h0c-.0479-.009-.0947-.0174-.1426-.0228h0a.0376.0376,0,0,0-.0285-.009h0c-.057-.0091-.1129-.0156-.1688-.022h-.03c-.0457-.009-.0878-.01-.13-.0147h0c-.0719.0091-.14.0129-.2076.0193"/>
    <path class="a032f497-841e-4c81-a758-c519a29a5ed8" d="M53.5852,7.4186c-1.14,3.65-2.0624,6.6616-2.8654,9.1391h0A99.2327,99.2327,0,0,0,59.8589.5963h0C56.438,1.6707,54.6129,4.13,53.5852,7.4186"/>
    <path class="efba4f47-a259-4cbc-bf0c-d6af6c63e2b9" d="M50.819,26.6413c-.16.0812-.3193.1585-.4768.2281C56.4243,24.1569,63.679,13.398,67.1524.0031h-.7038c-7.98,14.255-10.5467,23.7979-15.63,26.6382"/>
    <path class="bbeaf83d-035c-4372-9866-8d2d45108409" d="M46.8475,25.4436c1.3232-1.6151,2.4011-4.3607,3.8727-8.8858a44.4878,44.4878,0,0,1-5.116,5.97c0,.009,0,.009-.0091.0147a15.5826,15.5826,0,0,0,1.2491,2.9007"/>
    <path class="b1a87ddc-c9ea-4d7b-820e-dd2cae54263e" d="M46.8475,25.4436A5.42,5.42,0,0,1,45.39,26.7224c-.1163.0675-.2338.1311-.3536.1894a5.128,5.128,0,0,0,1.8558.5851h0c.1.01.2.0192.3035.0264h.0183a.8071.8071,0,0,1,.146.0091h.4947a.12.12,0,0,0,.0557-.0091.4539.4539,0,0,0,.1095-.009h.0539c.0375,0,.0785-.009.1187-.0129h.009c.012,0,.0246-.009.0365-.009.042-.0091.0858-.0129.1267-.0192h.0374c.0465-.0091.0946-.0147.1425-.0238h.0228c.0959-.0183.1894-.0365.284-.06a4.1307,4.1307,0,0,1-2.0075-1.93"/>
    <path class="b562179c-6105-4df2-9216-4d862339db46" d="M35.6345,27.5324a9.1136,9.1136,0,0,0,1.7213-.1666,10.67,10.67,0,0,0,1.6049-.4323,5.8327,5.8327,0,0,0,1.4088.48,5.9842,5.9842,0,0,0,1.2023.1187Z"/>
    <path class="b562179c-6105-4df2-9216-4d862339db46" d="M41.5719,27.5324a7.8711,7.8711,0,0,0,3.4642-.6206,5.1276,5.1276,0,0,0,1.8558.5853h0c.1.01.2.0192.3035.0264h.0183a.8071.8071,0,0,1,.146.0091H41.5678Z"/>
    <path class="b137cfd3-327f-416c-a4fa-f83917126562" d="M47.5337,27.5324h.3252a.1174.1174,0,0,0,.0556-.0091.4683.4683,0,0,0,.1107-.009h.054c.0374,0,.0785-.009.1175-.0127h.01c.0119,0,.0237-.009.0356-.009.0419-.009.0858-.0127.1265-.0192a.0645.0645,0,0,0,.0393-.009c.0465-.0091.0947-.0138.1426-.0228h.0228c.0959-.0183.1894-.0366.284-.06h0a2.4774,2.4774,0,0,0,.87.1529l-2.1924.009Z"/>
    <path class="a712583d-82ee-423d-a5b1-496e676b34e3" d="M45.5988,22.543v-.0091q-.9393.8982-1.8753,1.6437c-.3262.259-.6513.5042-.98.7358a11.1342,11.1342,0,0,0,.8487.9171,6.5762,6.5762,0,0,0,1.4464,1.08c.1186-.0584.2372-.1221.3524-.1894a5.41,5.41,0,0,0,1.459-1.2786,15.58,15.58,0,0,1-1.2491-2.9008"/>
    <path class="b96d1460-020a-487d-89b1-3f18cc70af79" d="M64.22.0031H60.6773c-.1916.0091-.3775.0156-.5612.0274h0c-.0867.186-.1757.372-.2613.559h0a99.2266,99.2266,0,0,1-9.139,15.9615h0c-1.47,4.525-2.5494,7.2706-3.8726,8.8858h0A4.1412,4.1412,0,0,0,48.85,27.3679h0a.3571.3571,0,0,1,.0616-.0137h.0126c.0138,0,.0285-.0091.0434-.0091h0c.0319-.009.0661-.0147.0981-.0246h0a.4828.4828,0,0,1,.0582-.0165h0c.03-.009.06-.0156.0878-.0228h0a.2059.2059,0,0,1,.0547-.0156h0c.0456-.0147.0867-.0256.13-.0393h0a.379.379,0,0,1,.065-.0219h0c.0251-.009.05-.0156.073-.0264h0c.0263-.0091.0525-.0138.0753-.0238h0c.0206-.009.0422-.0147.0616-.0228h0c.0513-.0183.1015-.0338.1528-.0538h0c.0138,0,.0274-.0127.0423-.0156h0c.0308-.0129.0627-.0229.0936-.0365h0a.1125.1125,0,0,1,.04-.0147h0c.1073-.0448.2179-.09.3285-.14H50.34c.1574-.0693.3171-.1472.4756-.2281h0c5.084-2.84,7.6506-12.3832,15.6307-26.6382H64.2171Z"/>
    <path class="f0b956fe-3aec-41d1-a2b6-7623b49d2481" d="M20.0884.63a.0548.0548,0,0,1,.0365.0091.2946.2946,0,0,1,.0924.01h.0308c.0559.009.1118.0138.1688.0219A.0346.0346,0,0,1,20.4454.68c.0467.009.0947.0165.1426.0237.01,0,.024.009.0354.009.11.0219.2213.0447.3285.073.01,0,.0206.0091.03.0091.0456.0108.0866.0246.1323.0374.0137,0,.0239.009.0365.011.0536.0138.1038.0274.1562.0448.0023,0,.0055,0,.0116.009.0444.0136.09.031.1368.0465A.2561.2561,0,0,0,21.5075.96c.032.0138.0674.0274.0981.04a.197.197,0,0,1,.0558.0192c.0422.0192.0867.0365.13.0547.0228.0091.0422.0192.0639.0274a.5725.5725,0,0,0,.0786.0338l.07.0328c.024.0129.0467.0228.07.0356a6.544,6.544,0,0,1,1.57,1.0985,5.0817,5.0817,0,0,1,.5566-.5053A6.1277,6.1277,0,0,0,20.57.6224c-.16,0-.3194.009-.4814.021"/>
    <path class="a45ebf7a-44f2-42a8-86c1-fa7879646e79" d="M23.6429,2.2893a8.8972,8.8972,0,0,1,.8464.9126c.2589-.18.5156-.3536.7734-.5156a8.15,8.15,0,0,0-1.0643-.9023,4.9912,4.9912,0,0,0-.5555.5053"/>
    <path class="a6e8bab2-e90d-4643-b1f3-5548588e66ce" d="M20.0881.6293C20.25.6156,20.41.61,20.57.61a6.1352,6.1352,0,0,1,3.63,1.1738A6.5687,6.5687,0,0,1,28.5279.5985H19.4744c.2088,0,.4129.0126.6137.0308"/>
    <path class="ba179442-9562-486e-b597-0f1e5fe14fe0" d="M28.5279.5985a6.5687,6.5687,0,0,0-4.3288,1.1852,8.214,8.214,0,0,1,1.0631.9023A13.1968,13.1968,0,0,1,29.8614.7628,9.33,9.33,0,0,1,31.5827.5985Z"/>
    <path class="e3f1f5ff-543e-4401-8f16-e93fd299eaa9" d="M50.72,16.56c.8042-2.48,1.7247-5.49,2.8665-9.1414,1.0289-3.29,2.8506-5.749,6.2714-6.8223.09-.1837.1757-.3731.2636-.559-5.5768.3342-8.1833,3.171-9.495,7.3722C48.3324,14.744,46.943,19.4984,45.605,22.528A44.5971,44.5971,0,0,0,50.72,16.56"/>
    <path class="a44e3be4-c2a5-40ea-bea7-83e1159741e1" d="M58.9014,25.5785H58.27v1.9643h-.2578V25.5785h-.6342v-.2338h1.5239v.2338Z"/>
    <path class="a44e3be4-c2a5-40ea-bea7-83e1159741e1" d="M61.489,27.5424h-.2566v-1.476c0-.1164.009-.2589.021-.4266h0a1.5083,1.5083,0,0,1-.0684.2144l-.7483,1.6882h-.1255l-.7506-1.6756a1.2159,1.2159,0,0,1-.0675-.227h-.009c.009.0885.012.2316.012.43v1.4726H59.25v-2.198h.34l.6741,1.5341a2.0037,2.0037,0,0,1,.0993.2636h.01c.0447-.1209.0812-.2111.1062-.27l.6877-1.5273h.324v2.198Z"/>
  </g>
</svg>
