<svg id="fbc9dff2-eb31-4793-9087-467c2570ae48" data-name="b43e9970-18bb-41d9-b3e9-7e0fcccbc69f" xmlns="http://www.w3.org/2000/svg" width="35.51" height="49.9998" viewBox="0 0 35.51 49.9998">
  <defs>
    <style>
      .a07dc556-84a9-4141-8c3e-b186e7b7a0f2 {
        opacity: 0.3;
      }

      .b418ca45-1c73-4bb9-ae55-7606d8615a7f {
        fill: #282642;
      }

      .b09a175d-58c1-4636-8ba2-0764e933acde, .b418ca45-1c73-4bb9-ae55-7606d8615a7f, .bf9d3967-c0e7-438a-abea-acc4465d7b75 {
        fill-rule: evenodd;
      }

      .b09a175d-58c1-4636-8ba2-0764e933acde {
        fill: #4a4a77;
      }

      .bf9d3967-c0e7-438a-abea-acc4465d7b75 {
        fill: #fff;
      }
    </style>
  </defs>
  <g class="a07dc556-84a9-4141-8c3e-b186e7b7a0f2">
    <path class="b418ca45-1c73-4bb9-ae55-7606d8615a7f" d="M32.2345,12.8716l-2.643,31.1516L17.6841,47.4164l-.0477-34.5448ZM35.51,9.9711s-2.1637,24.4915-3.3443,36.34c-16.2061,4.9347-12.6337,4.9018-28.9191,0C2.1638,34.4626,0,9.9711,0,9.9711Z"/>
    <polygon class="b09a175d-58c1-4636-8ba2-0764e933acde" points="32.263 12.838 29.627 44.159 17.585 47.516 17.585 12.838 32.263 12.838"/>
    <path class="bf9d3967-c0e7-438a-abea-acc4465d7b75" d="M28.8213,17.4765l-.3928,4.2477H11.4114l.4416,4.6893,16.1806.0488L26.8529,40.1906l-9.1478,2.4677-9.05-2.4677-.59-6.913h4.33L12.69,36.733l5.0154,1.3826c5.99-1.5155,5.0566-.5408,5.6059-7.3081H7.7718l-1.083-13.331Z"/>
    <path class="b418ca45-1c73-4bb9-ae55-7606d8615a7f" d="M29.1165,0V4.5406h3.1469V6.7154H26.9505V0ZM20.4593,0c.49.79.8854,1.58,1.4758,2.3724L23.4087,0h2.2635V6.7154H23.5084V3.3576c-.59.79-1.0829,1.578-1.5733,2.368L20.264,3.3576V6.7154H18.2V0ZM17.015,0V2.1726H15.0487V6.7154H12.8872V2.1726H10.9187V0ZM5.4105,0V2.27H7.6719V0H9.7381V6.7154H7.6719v-2.27H5.4105v2.27H3.3445V0Z"/>
  </g>
</svg>
