<svg id="f32d1821-5eba-4f5a-8fee-f6a23c0ab3eb" data-name="Layer 1" xmlns="http://www.w3.org/2000/svg" width="172.9053" height="34.4521" viewBox="0 0 172.9053 34.4521">
  <defs>
    <style>
      .bf952b52-a5d7-412d-8885-e881065d6380 {
        fill: #fff;
      }

      .e7e8adea-7b6e-49d3-89ef-1f4c2063b4f3 {
        fill: #f04f62;
      }
    </style>
  </defs>
  <g>
    <path class="bf952b52-a5d7-412d-8885-e881065d6380" d="M2.3218,30.3477a.8467.8467,0,0,1-.27-.648V5.94a.8489.8489,0,0,1,.27-.648.9413.9413,0,0,1,.666-.2519H7.38a.863.863,0,0,1,.9.9V17.9634l4.7881-5.4717c.0478-.0479.1382-.1318.27-.252a1.4387,1.4387,0,0,1,.4141-.27,1.42,1.42,0,0,1,.54-.09h5.0762a.7629.7629,0,0,1,.5576.2344.8044.8044,0,0,1,.2344.5937.7939.7939,0,0,1-.252.5762l-6.3364,6.9839,7.2363,8.9638a.9721.9721,0,0,1,.252.54.8.8,0,0,1-.8282.8281h-5.22a1.3594,1.3594,0,0,1-.7021-.144,3.2424,3.2424,0,0,1-.5581-.4678L8.28,23.22V29.7a.894.894,0,0,1-.252.63.8454.8454,0,0,1-.6479.27H2.9878A.94.94,0,0,1,2.3218,30.3477Z" transform="translate(-2.0518 -4.0674)"/>
    <path class="bf952b52-a5d7-412d-8885-e881065d6380" d="M23.58,9.0176a.9368.9368,0,0,1-.2525-.666V5.0034a.907.907,0,0,1,.27-.666.8651.8651,0,0,1,.63-.27h4.5a.9222.9222,0,0,1,.9361.936V8.3516a.9222.9222,0,0,1-.9361.936h-4.5A.8441.8441,0,0,1,23.58,9.0176Zm.0176,21.312a.8645.8645,0,0,1-.27-.63V12.78a.8475.8475,0,0,1,.27-.648.8956.8956,0,0,1,.63-.2524h4.5a.9411.9411,0,0,1,.6661.2524.8478.8478,0,0,1,.27.648V29.7a.847.847,0,0,1-.27.648.9407.9407,0,0,1-.6661.2519h-4.5A.8632.8632,0,0,1,23.5972,30.33Z" transform="translate(-2.0518 -4.0674)"/>
    <path class="bf952b52-a5d7-412d-8885-e881065d6380" d="M35.6392,28.6016q-2.52-2.3577-2.5918-6.8579V20.6274a9.2875,9.2875,0,0,1,2.664-6.6958A9.4315,9.4315,0,0,1,42.5151,11.52a10.287,10.287,0,0,1,5.2383,1.2422,7.8743,7.8743,0,0,1,3.2041,3.42,11.1593,11.1593,0,0,1,1.062,4.95v.9a.9222.9222,0,0,1-.936.9361H39.6714v.2158a4.5065,4.5065,0,0,0,.7558,2.61,2.3844,2.3844,0,0,0,2.0523.99,2.4907,2.4907,0,0,0,1.3857-.3423,4.8127,4.8127,0,0,0,.99-.8818,1.8909,1.8909,0,0,1,.5219-.45,1.63,1.63,0,0,1,.63-.09h4.7158a.8369.8369,0,0,1,.5582.1983.6134.6134,0,0,1,.2338.4858,3.6678,3.6678,0,0,1-1.062,2.1958,8.42,8.42,0,0,1-3.0957,2.16,11.814,11.814,0,0,1-4.8061.9A9.7139,9.7139,0,0,1,35.6392,28.6016Zm9.7563-9.3062v-.0718a4.22,4.22,0,0,0-.7563-2.6821,2.5563,2.5563,0,0,0-2.1241-.9541,2.5055,2.5055,0,0,0-2.1059.9541,4.2949,4.2949,0,0,0-.7378,2.6821v.0718Z" transform="translate(-2.0518 -4.0674)"/>
    <path class="bf952b52-a5d7-412d-8885-e881065d6380" d="M55.5288,30.33a.8644.8644,0,0,1-.27-.63V12.78a.8474.8474,0,0,1,.27-.648.8959.8959,0,0,1,.63-.2524h4.4277a.8636.8636,0,0,1,.9.9v1.3677A7.0588,7.0588,0,0,1,63.9893,12.24a8.1507,8.1507,0,0,1,3.51-.72,7.11,7.11,0,0,1,3.6538.9361,6.45,6.45,0,0,1,2.52,2.7719,9.81,9.81,0,0,1,.9179,4.4283V29.7a.8944.8944,0,0,1-.2519.63.8457.8457,0,0,1-.648.27H68.9028a.94.94,0,0,1-.666-.2519.8467.8467,0,0,1-.27-.648V19.8716a3.6013,3.6013,0,0,0-.7739-2.4839,2.8639,2.8639,0,0,0-2.25-.8643,2.9614,2.9614,0,0,0-2.2681.8824,3.4621,3.4621,0,0,0-.8276,2.4658V29.7a.8962.8962,0,0,1-.252.63.8469.8469,0,0,1-.6479.27H56.1592A.8634.8634,0,0,1,55.5288,30.33Z" transform="translate(-2.0518 -4.0674)"/>
    <path class="e7e8adea-7b6e-49d3-89ef-1f4c2063b4f3" d="M78.605,30.3477a.8449.8449,0,0,1-.27-.648V24.9478a.9222.9222,0,0,1,.936-.9361h4.7519a.8468.8468,0,0,1,.648.27.9408.9408,0,0,1,.252.6661V29.7a.8962.8962,0,0,1-.252.63.8464.8464,0,0,1-.648.27H79.271A.9379.9379,0,0,1,78.605,30.3477Z" transform="translate(-2.0518 -4.0674)"/>
    <path class="bf952b52-a5d7-412d-8885-e881065d6380" d="M90.2324,28.7637A9.51,9.51,0,0,1,88.09,22.5l-.0361-1.26.0361-1.2959a9.4646,9.4646,0,0,1,2.16-6.1743,6.9784,6.9784,0,0,1,5.4717-2.25,6.8625,6.8625,0,0,1,5.22,2.0879V5.94a.8471.8471,0,0,1,.27-.648.8961.8961,0,0,1,.63-.2519h4.644a.942.942,0,0,1,.666.2519.8472.8472,0,0,1,.27.648V29.7a.845.845,0,0,1-.27.648.94.94,0,0,1-.666.2519h-4.2842a.923.923,0,0,1-.9-.9V28.5835a6.7962,6.7962,0,0,1-5.58,2.376A7.0478,7.0478,0,0,1,90.2324,28.7637Zm9.8819-3.7979a4.3643,4.3643,0,0,0,.8281-2.5024q.0717-1.0071.0718-1.3677,0-.3956-.0718-1.332a3.797,3.797,0,0,0-.8462-2.3223,2.822,2.822,0,0,0-2.2857-.918,2.6931,2.6931,0,0,0-2.3222.9541,4.9437,4.9437,0,0,0-.81,2.646L94.6426,21.24l.0356,1.1158a4.9393,4.9393,0,0,0,.81,2.646,3.2382,3.2382,0,0,0,4.626-.0357Z" transform="translate(-2.0518 -4.0674)"/>
    <path class="bf952b52-a5d7-412d-8885-e881065d6380" d="M113.7036,30.2217a5.9426,5.9426,0,0,1-2.4477-2.0342,4.9442,4.9442,0,0,1-.8824-2.8437,4.7554,4.7554,0,0,1,2.0342-3.9781,12.5645,12.5645,0,0,1,5.5982-2.1059l4.4638-.6841v-.4321a2.8953,2.8953,0,0,0-.54-1.9439,2.35,2.35,0,0,0-1.8359-.6123,2.6,2.6,0,0,0-1.2061.2524,6.4751,6.4751,0,0,0-1.0981.7559,4.3437,4.3437,0,0,1-.8282.5757.4173.4173,0,0,1-.36.2524h-4.1758a.8022.8022,0,0,1-.5943-.2343.6489.6489,0,0,1-.1977-.5577,3.9446,3.9446,0,0,1,.9717-2.1782,7.3451,7.3451,0,0,1,2.8442-2.07,11.4146,11.4146,0,0,1,4.7158-.8643q4.4634,0,6.6241,1.9619a6.8194,6.8194,0,0,1,2.16,5.31V29.7a.8965.8965,0,0,1-.2519.63.8471.8471,0,0,1-.648.27h-4.4282a.9228.9228,0,0,1-.9-.9V28.44a5.8165,5.8165,0,0,1-2.1963,1.8183,7.4108,7.4108,0,0,1-3.3477.7017A8.0509,8.0509,0,0,1,113.7036,30.2217Zm7.8482-4.5542a4.2316,4.2316,0,0,0,.99-3.0239v-.4322l-2.9878.5044q-3.0242.5757-3.0239,2.16a1.5637,1.5637,0,0,0,.7016,1.332,2.9144,2.9144,0,0,0,1.7461.5039A3.3873,3.3873,0,0,0,121.5518,25.6675Z" transform="translate(-2.0518 -4.0674)"/>
    <path class="bf952b52-a5d7-412d-8885-e881065d6380" d="M133.1431,30.33a.8645.8645,0,0,1-.27-.63V12.78a.8475.8475,0,0,1,.27-.648.8956.8956,0,0,1,.63-.2524h4.4278a.8638.8638,0,0,1,.9.9v1.3677a7.0576,7.0576,0,0,1,2.5024-1.9078,8.1511,8.1511,0,0,1,3.51-.72,7.1105,7.1105,0,0,1,3.6538.9361,6.4489,6.4489,0,0,1,2.52,2.7719,9.81,9.81,0,0,1,.918,4.4283V29.7a.894.894,0,0,1-.252.63.8454.8454,0,0,1-.6479.27h-4.7881a.94.94,0,0,1-.666-.2519.8467.8467,0,0,1-.27-.648V19.8716a3.6014,3.6014,0,0,0-.774-2.4839,2.8639,2.8639,0,0,0-2.25-.8643,2.9612,2.9612,0,0,0-2.268.8824,3.4617,3.4617,0,0,0-.8277,2.4658V29.7a.8961.8961,0,0,1-.2519.63.8471.8471,0,0,1-.648.27h-4.7881A.8632.8632,0,0,1,133.1431,30.33Z" transform="translate(-2.0518 -4.0674)"/>
    <path class="bf952b52-a5d7-412d-8885-e881065d6380" d="M159.873,37.4038a7.8233,7.8233,0,0,1-3.0957-2.5742,4.8268,4.8268,0,0,1-.936-2.43.7827.7827,0,0,1,.2876-.6118.959.959,0,0,1,.6484-.252h4.8238a.9382.9382,0,0,1,.5761.1622,1.4208,1.4208,0,0,1,.396.5576,3.237,3.237,0,0,0,.9361,1.2422,2.9187,2.9187,0,0,0,1.8.45,3.0915,3.0915,0,0,0,2.3042-.774,3.6083,3.6083,0,0,0,.7558-2.5742V28.1875a6.9093,6.9093,0,0,1-5.22,1.98,7.1558,7.1558,0,0,1-5.562-2.106,9.5626,9.5626,0,0,1-2.1059-6.21l-.0357-.9722a10.8231,10.8231,0,0,1,1.9619-6.876,6.8775,6.8775,0,0,1,5.7417-2.4839,7.15,7.15,0,0,1,3.24.7022,6.8111,6.8111,0,0,1,2.34,1.89V12.8154a.94.94,0,0,1,.252-.666.847.847,0,0,1,.6479-.27h4.3921a.9222.9222,0,0,1,.936.936V30.06a7.8979,7.8979,0,0,1-2.4839,6.3q-2.4835,2.1606-6.9838,2.16A12.2409,12.2409,0,0,1,159.873,37.4038Zm7.6324-13.0322a4.1773,4.1773,0,0,0,.8637-2.376,9.9509,9.9509,0,0,0,.0362-1.08,9.3525,9.3525,0,0,0-.0362-1.08,4.14,4.14,0,0,0-.8637-2.394,2.8137,2.8137,0,0,0-2.3042-.918,2.7,2.7,0,0,0-2.3042.9541,4.6468,4.6468,0,0,0-.792,2.646l-.0357.792a6.398,6.398,0,0,0,.6836,3.2222,2.5938,2.5938,0,0,0,2.4483,1.17A2.7852,2.7852,0,0,0,167.5054,24.3716Z" transform="translate(-2.0518 -4.0674)"/>
  </g>
</svg>
