<svg id="a5edd696-4636-4dbe-b8b1-b4a1dd0c5850" data-name="f9462424-0f92-476d-bd9a-220b6cab30c8" xmlns="http://www.w3.org/2000/svg" width="120" height="22.2944" viewBox="0 0 120 22.2944">
  <defs>
    <style>
      .b3d0bcb4-13f0-43aa-9a6a-391140abdae1 {
        opacity: 0.3;
      }

      .a332aaeb-5292-4056-b966-d70edaa22894 {
        fill: #282642;
      }

      .e9e46bb1-4920-4c92-8629-c85156318f23 {
        fill: #fff;
        fill-rule: evenodd;
      }
    </style>
  </defs>
  <g class="b3d0bcb4-13f0-43aa-9a6a-391140abdae1">
    <g>
      <path class="a332aaeb-5292-4056-b966-d70edaa22894" d="M38.8494,7.3452h-3.698v10.588h-2.93V7.3452h-3.68V4.9673h10.308Z"/>
      <path class="a332aaeb-5292-4056-b966-d70edaa22894" d="M48.2978,8.6741l-3.761,10.0005q-1.3567,3.6075-4.0874,3.6077a5.23,5.23,0,0,1-1.7085-.2351V19.7689a2.4036,2.4036,0,0,0,1.2388.3342,1.5475,1.5475,0,0,0,1.5369-1.04l.488-1.1485-3.761-9.2409h3.1646l1.7267,5.6332a7.3254,7.3254,0,0,1,.2534,1.2387h.0359a8.6123,8.6123,0,0,1,.2988-1.22l1.7449-5.6514Z"/>
      <path class="a332aaeb-5292-4056-b966-d70edaa22894" d="M52.34,16.8572h-.0365v5.3349h-2.857V8.6741h2.857v1.3925H52.34a3.6357,3.6357,0,0,1,5.7549-.384,5.2537,5.2537,0,0,1,.981,3.3588,5.6957,5.6957,0,0,1-1.1436,3.7162A3.73,3.73,0,0,1,54.89,18.16,2.8827,2.8827,0,0,1,52.34,16.8572ZM52.2585,13.06v.7413a2.3589,2.3589,0,0,0,.5067,1.5646,1.6476,1.6476,0,0,0,1.3289.6058,1.7525,1.7525,0,0,0,1.5148-.7552,3.6465,3.6465,0,0,0,.5378-2.1383q0-2.4414-1.8988-2.4415a1.7826,1.7826,0,0,0-1.4329.6645A2.6482,2.6482,0,0,0,52.2585,13.06Z"/>
      <path class="a332aaeb-5292-4056-b966-d70edaa22894" d="M69.2482,14.1175h-6.04q.1449,2.0163,2.541,2.0166a4.9584,4.9584,0,0,0,2.6855-.7237v2.0615a7.0527,7.0527,0,0,1-3.3366.6876,4.6953,4.6953,0,0,1-3.4811-1.2437,4.6951,4.6951,0,0,1-1.2387-3.4672,4.9542,4.9542,0,0,1,1.3383-3.6531,4.4568,4.4568,0,0,1,3.2908-1.3472A4.0451,4.0451,0,0,1,68.14,9.6511a4.63,4.63,0,0,1,1.1076,3.2636Zm-2.649-1.7538q0-1.99-1.6094-1.9895a1.5348,1.5348,0,0,0-1.1889.57,2.5848,2.5848,0,0,0-.6108,1.42Z"/>
      <path class="a332aaeb-5292-4056-b966-d70edaa22894" d="M70.6319,17.4359V14.5424a5.5515,5.5515,0,0,0,1.7089.99,5.4939,5.4939,0,0,0,1.8623.33,4.1538,4.1538,0,0,0,.9632-.099,2.2584,2.2584,0,0,0,.6871-.2761,1.2008,1.2008,0,0,0,.4116-.416,1.039,1.039,0,0,0,.1356-.52,1.1224,1.1224,0,0,0-.2174-.6783,2.3282,2.3282,0,0,0-.592-.5516,6.28,6.28,0,0,0-.8907-.4885q-.5154-.2343-1.1121-.4791a5.6723,5.6723,0,0,1-2.265-1.5463,3.3743,3.3743,0,0,1-.7458-2.2059,3.5146,3.5146,0,0,1,.4067-1.74,3.4516,3.4516,0,0,1,1.1076-1.1983,4.97,4.97,0,0,1,1.6232-.6916,8.3267,8.3267,0,0,1,1.953-.2218,11.7521,11.7521,0,0,1,1.7947.1222,7.0722,7.0722,0,0,1,1.4423.3752V7.951a4.3319,4.3319,0,0,0-.71-.3978,5.6522,5.6522,0,0,0-.7911-.2849,5.9852,5.9852,0,0,0-.8094-.1671,5.6772,5.6772,0,0,0-.764-.0543,3.9892,3.9892,0,0,0-.9041.0947,2.3264,2.3264,0,0,0-.6871.2667,1.3287,1.3287,0,0,0-.4343.4115.9747.9747,0,0,0-.1538.5378,1.0257,1.0257,0,0,0,.1721.5837,1.971,1.971,0,0,0,.488.488,5.1447,5.1447,0,0,0,.7689.452q.4518.2217,1.0214.4569a11.3743,11.3743,0,0,1,1.3969.6916,4.9782,4.9782,0,0,1,1.0628.8271,3.2335,3.2335,0,0,1,.6778,1.0534,3.7255,3.7255,0,0,1,.2351,1.3792,3.6976,3.6976,0,0,1-.4111,1.8219,3.34,3.34,0,0,1-1.117,1.1934,4.833,4.833,0,0,1-1.6409.6555,9.4855,9.4855,0,0,1-1.9753.2,11.0035,11.0035,0,0,1-2.03-.1809A6.1351,6.1351,0,0,1,70.6319,17.4359Z"/>
      <path class="a332aaeb-5292-4056-b966-d70edaa22894" d="M88.3447,17.5985a5.65,5.65,0,0,1-2.7939.561,4.724,4.724,0,0,1-3.4539-1.2935,4.463,4.463,0,0,1-1.32-3.3361,4.9182,4.9182,0,0,1,1.4147-3.7206,5.2289,5.2289,0,0,1,3.7842-1.361,4.8566,4.8566,0,0,1,2.369.4338v2.4232a3.26,3.26,0,0,0-1.9983-.6689,2.6335,2.6335,0,0,0-1.9486.7187,2.6834,2.6834,0,0,0-.7187,1.985,2.64,2.64,0,0,0,.6872,1.93,2.5249,2.5249,0,0,0,1.89.701,3.7713,3.7713,0,0,0,2.0885-.6694Z"/>
      <path class="a332aaeb-5292-4056-b966-d70edaa22894" d="M96.2562,11.2511a2.4794,2.4794,0,0,0-1.2028-.28,1.7317,1.7317,0,0,0-1.4556.6827,2.9787,2.9787,0,0,0-.5244,1.8579v4.4215h-2.857V8.6741h2.857v1.7183H93.11a2.4716,2.4716,0,0,1,2.441-1.881,1.8471,1.8471,0,0,1,.7054.1085Z"/>
      <path class="a332aaeb-5292-4056-b966-d70edaa22894" d="M99.1048,7.21A1.6674,1.6674,0,0,1,97.92,6.78a1.3844,1.3844,0,0,1-.4614-1.0534,1.3336,1.3336,0,0,1,.4614-1.049,1.9333,1.9333,0,0,1,2.3735,0,1.3436,1.3436,0,0,1,.4574,1.049,1.381,1.381,0,0,1-.4574,1.0667A1.6975,1.6975,0,0,1,99.1048,7.21Zm1.41,10.7236H97.6581V8.6741h2.8565Z"/>
      <path class="a332aaeb-5292-4056-b966-d70edaa22894" d="M105.8136,16.8572h-.0365v5.3349H102.92V8.6741h2.857v1.3925h.0365a3.6361,3.6361,0,0,1,5.7554-.384,5.2567,5.2567,0,0,1,.9809,3.3588,5.6925,5.6925,0,0,1-1.1446,3.7162A3.7278,3.7278,0,0,1,108.363,18.16,2.8825,2.8825,0,0,1,105.8136,16.8572Zm-.0819-3.7975v.7413a2.3558,2.3558,0,0,0,.5068,1.5646,1.648,1.648,0,0,0,1.3289.6058,1.7524,1.7524,0,0,0,1.5143-.7552,3.6444,3.6444,0,0,0,.5382-2.1383q0-2.4414-1.8987-2.4415a1.7834,1.7834,0,0,0-1.4334.6645,2.6513,2.6513,0,0,0-.5561,1.7591Z"/>
      <path class="a332aaeb-5292-4056-b966-d70edaa22894" d="M120,17.8248a4.2253,4.2253,0,0,1-1.9076.3347q-3.02,0-3.02-3.138V10.7809h-1.5015V8.6741h1.5015V6.6763l2.8481-.8139V8.6741H120v2.1068h-2.0792v3.7437q0,1.4463,1.1476,1.4468A1.94,1.94,0,0,0,120,15.7091Z"/>
    </g>
    <g>
      <rect class="a332aaeb-5292-4056-b966-d70edaa22894" width="22.2944" height="22.2944" rx="1.045"/>
      <path class="e9e46bb1-4920-4c92-8629-c85156318f23" d="M12.9346,17.3248v2.443a5.145,5.145,0,0,0,1.4043.4579,9.212,9.212,0,0,0,1.7087.1528,7.9547,7.9547,0,0,0,1.663-.1679,4.0686,4.0686,0,0,0,1.3816-.5536,2.817,2.817,0,0,0,.94-1.0077,3.5611,3.5611,0,0,0,.1484-2.7024,2.7222,2.7222,0,0,0-.5709-.8894,4.182,4.182,0,0,0-.8942-.6985,9.5666,9.5666,0,0,0-1.1761-.584q-.4794-.1985-.86-.3855a4.3656,4.3656,0,0,1-.647-.3817,1.6616,1.6616,0,0,1-.411-.4123.87.87,0,0,1-.1446-.4924.8242.8242,0,0,1,.1294-.4542,1.1182,1.1182,0,0,1,.3653-.3474,1.95,1.95,0,0,1,.5785-.2252,3.3471,3.3471,0,0,1,.7611-.08,4.7887,4.7887,0,0,1,.6432.0458,5.0711,5.0711,0,0,1,.6812.1412,4.73,4.73,0,0,1,.6661.2405,3.6658,3.6658,0,0,1,.5974.3359V9.477a5.9279,5.9279,0,0,0-1.214-.317,9.8433,9.8433,0,0,0-1.5109-.1031,6.9992,6.9992,0,0,0-1.644.187,4.1752,4.1752,0,0,0-1.3663.584,2.9148,2.9148,0,0,0-.9323,1.0116,2.9722,2.9722,0,0,0-.3426,1.47,2.8554,2.8554,0,0,0,.628,1.8627,4.7773,4.7773,0,0,0,1.9066,1.3055q.5023.2061.9362.4046a5.2041,5.2041,0,0,1,.75.4122,1.9673,1.9673,0,0,1,.4985.4657.95.95,0,0,1,.1827.5726.8776.8776,0,0,1-.1141.4389,1.0158,1.0158,0,0,1-.3463.3512,1.8949,1.8949,0,0,1-.5785.2328,3.4742,3.4742,0,0,1-.8106.084,4.608,4.608,0,0,1-1.568-.2787A4.674,4.674,0,0,1,12.9346,17.3248Zm-4.1035-6.081h3.187V9.2313H3.1351v2.0125H6.3065v8.9605H8.8311Z"/>
    </g>
  </g>
</svg>
